<svg xmlns="http://www.w3.org/2000/svg" viewBox="0 0 18.52 21.71"><defs><style>.cls-1{fill:#f9a5d1;}.cls-2{fill:#fff;}.cls-3{fill:#42210b;}.cls-4{fill:#603813;}.cls-5{fill:none;stroke:#603813;stroke-linecap:round;stroke-miterlimit:10;stroke-width:0.5px;}.cls-6{fill:#ff576f;opacity:0.5;}</style></defs><g id="Layer_2" data-name="Layer 2"><g id="Layer_1-2" data-name="Layer 1"><ellipse class="cls-1" cx="7.01" cy="9.77" rx="3.91" ry="3.42" transform="translate(-1.08 0.88) rotate(-6.65)"/><ellipse class="cls-1" cx="5.72" cy="7.21" rx="3.42" ry="3.18" transform="translate(-0.8 0.71) rotate(-6.65)"/><ellipse class="cls-1" cx="6.29" cy="6.17" rx="3.93" ry="3.5" transform="translate(-0.67 0.77) rotate(-6.65)"/><ellipse class="cls-1" cx="4.47" cy="4.9" rx="3.42" ry="3.18" transform="translate(-0.54 0.55) rotate(-6.65)"/><ellipse class="cls-1" cx="4.78" cy="3.39" rx="3.42" ry="3.18" transform="translate(-0.36 0.58) rotate(-6.65)"/><ellipse class="cls-1" cx="11.56" cy="6.86" rx="3.18" ry="3.42" transform="translate(-0.24 13.3) rotate(-59.3)"/><ellipse class="cls-1" cx="12.98" cy="5.42" rx="3.18" ry="3.42" transform="translate(1.69 13.82) rotate(-59.3)"/><ellipse class="cls-1" cx="11.97" cy="4.25" rx="3.18" ry="3.42" transform="translate(2.2 12.37) rotate(-59.3)"/><ellipse class="cls-1" cx="13.14" cy="3.24" rx="3.18" ry="3.42" transform="translate(3.64 12.88) rotate(-59.3)"/><circle class="cls-1" cx="3.42" cy="12.7" r="3.42"/><circle class="cls-1" cx="4.47" cy="16.42" r="3.67"/><ellipse class="cls-1" cx="7.8" cy="18.29" rx="3.42" ry="4.15" transform="translate(-10.84 25.22) rotate(-87.28)"/><ellipse class="cls-1" cx="12" cy="17.51" rx="3.91" ry="4.89" transform="translate(-6.06 28.67) rotate(-87.28)"/><circle class="cls-1" cx="14.61" cy="14.21" r="3.91"/><ellipse class="cls-1" cx="13.56" cy="10.49" rx="3.67" ry="4.15" transform="translate(2.44 23.53) rotate(-87.28)"/><circle class="cls-1" cx="9.95" cy="9.09" r="3.42"/><circle class="cls-1" cx="8.75" cy="13.93" r="3.42"/><circle class="cls-1" cx="4.98" cy="10.82" r="3.42"/><circle class="cls-2" cx="4.26" cy="5.4" r="0.98"/><circle class="cls-2" cx="4.79" cy="4.45" r="0.98"/><circle class="cls-2" cx="5.75" cy="4.98" r="0.98"/><circle class="cls-2" cx="5.21" cy="5.93" r="0.98"/><circle class="cls-2" cx="12.11" cy="4.82" r="0.98"/><circle class="cls-2" cx="13.09" cy="4.34" r="0.98"/><circle class="cls-2" cx="13.57" cy="5.33" r="0.98"/><circle class="cls-2" cx="12.58" cy="5.8" r="0.98"/><circle class="cls-3" cx="7.43" cy="12.49" r="0.49"/><circle class="cls-3" cx="11.34" cy="12.49" r="0.49"/><circle class="cls-4" cx="9.26" cy="14.38" r="0.43"/><path class="cls-5" d="M9.26,14.81s0,.82-1.1.82"/><path class="cls-5" d="M9.26,14.81s0,.82,1.1.82"/><ellipse class="cls-6" cx="5.72" cy="14.45" rx="1.47" ry="1.22"/><ellipse class="cls-6" cx="12.81" cy="14.69" rx="1.47" ry="1.22"/></g></g></svg>