<svg xmlns="http://www.w3.org/2000/svg" viewBox="0 0 448.03 497.56"><defs><style>.cls-1{fill:none;}.cls-2{fill:#fff;}.cls-3{fill:#ff7bac;}</style></defs><g id="Layer_2" data-name="Layer 2"><g id="Layer_1-2" data-name="Layer 1"><path d="M126.2,183.61a135.49,135.49,0,0,0,3.66,78,122.72,122.72,0,0,0,18.64,34.28,105.62,105.62,0,0,0,28.92,25.8A111,111,0,0,0,251.15,336a94.25,94.25,0,0,0,35.4-13.18c11.83-7.49,21.63-17.75,29.76-29.07,8.46-11.78,15.16-24.72,21.26-37.85,6.64-14.26,13.67-29,15.62-44.77a60.07,60.07,0,0,0,.29-11.84c-.15-1.91-3.15-1.93-3,0,1.25,16.1-4.89,31.46-11.31,45.89-5.78,13-11.87,25.86-19.38,37.94-7.33,11.82-16.12,22.84-27,31.58a88.56,88.56,0,0,1-33.17,16.46,103.33,103.33,0,0,1-37,2.58,108.16,108.16,0,0,1-35.75-10.26,102,102,0,0,1-30-22.32,115.42,115.42,0,0,1-20.81-32,129.21,129.21,0,0,1-10-37,132.79,132.79,0,0,1,1.06-38.44c.55-3.12,1.22-6.21,2-9.28.48-1.87-2.41-2.67-2.89-.8Z"/><path d="M194.43,100.81a282.36,282.36,0,0,0,43.86,47.59,285.38,285.38,0,0,0,53.32,36.34,281,281,0,0,0,33.27,14.84c1.81.67,2.6-2.22.8-2.89a279,279,0,0,1-56.82-28.9,282.13,282.13,0,0,1-48.87-41,274.73,274.73,0,0,1-23-27.54c-1.13-1.54-3.73-.05-2.59,1.52Z"/><path d="M194.85,101a116,116,0,0,0,22.48,25.92c9.14,7.79,19.29,14.42,29.41,20.87a486.62,486.62,0,0,0,63,33.89c6.08,2.72,12.21,5.43,18.47,7.74s12.88,4,19.64,4a1.5,1.5,0,0,0,0-3c-11.74.05-22.9-5.32-33.43-9.94q-16.06-7-31.61-15.24t-30.43-17.47a314.9,314.9,0,0,1-29.27-20,115.18,115.18,0,0,1-25.64-28.29c-1-1.62-3.63-.12-2.59,1.51Z"/><path d="M191.8,99.77c-.37,7.3-3.53,14-7,20.33a204.11,204.11,0,0,1-11.31,18.36c-7.87,11.29-17.38,21.63-29.14,28.94A67.25,67.25,0,0,1,123.86,176c-1.88.43-1.08,3.32.8,2.89,13.49-3.09,25.59-10.58,35.54-20.06C171,148.57,179.26,136,186.51,123.18c4.1-7.26,7.86-15,8.29-23.41.09-1.93-2.91-1.93-3,0Z"/><path d="M320,156a38.17,38.17,0,0,0,20,22.65c1.74.81,3.26-1.78,1.51-2.59a35.25,35.25,0,0,1-18.63-20.86c-.59-1.83-3.49-1-2.89.8Z"/><path d="M184,13.85C151.57,26.07,123.64,48,102.75,75.46a198.56,198.56,0,0,0-39,94.87,175.16,175.16,0,0,0,1.11,51.42c3.59,20.82,11.37,43.45,4,64.32C65.3,296.12,58,304,50.61,311.37c-6.67,6.61-13.25,13.16-19,20.62A151.84,151.84,0,0,0,7.14,379.77C-3.37,413.91-2.49,451.89,11.21,485q2.49,6,5.51,11.8c.9,1.71,3.49.19,2.59-1.52C2.64,463.4-1,425.59,7.27,390.73a152.3,152.3,0,0,1,21-49A140.42,140.42,0,0,1,45.18,321c6.85-7,14.25-13.5,19.95-21.51C77.55,282,75.48,260.89,71.63,241c-1.91-9.88-4.19-19.68-5.29-29.69a171.79,171.79,0,0,1-.9-25.56c1.33-34.39,12.78-68.13,31.53-96.9,18.62-28.57,44.73-52.43,75.68-67,4-1.87,8-3.56,12.1-5.11,1.78-.67,1-3.57-.8-2.89Z"/><path d="M190.53,13.83C211.36,8.13,232.67,2.31,254.46,3c18.86.61,36.94,6.87,52.91,16.77,32.81,20.32,54.13,53.69,71.27,87.38,9.36,18.42,18,37.32,23.88,57.19,5.76,19.6,7.83,39.79,8.66,60.14.81,19.76.7,39.58,2.73,59.28a197.47,197.47,0,0,0,5,29.19,161.3,161.3,0,0,0,9.86,26.92c7.86,17.06,17,34.09,16.18,53.43a68.84,68.84,0,0,1-19.3,44.62,63.33,63.33,0,0,1-9.47,8c-1.58,1.09-.09,3.69,1.51,2.59a70.86,70.86,0,0,0,27.9-39.91,68.31,68.31,0,0,0,2.07-24.77c-1-9.42-4.07-18.39-7.8-27-4-9.31-8.77-18.29-12.54-27.7a150.77,150.77,0,0,1-8.2-29.25c-3.65-20.33-3.93-41.07-4.5-61.66s-1.38-41-5.75-61.06c-4.45-20.44-12.38-40-21.39-58.77-16.76-35-36.84-70.42-68.42-94.17-14.7-11.06-31.75-19.4-49.94-22.63-21.28-3.79-42.83-.06-63.52,5.16-5.32,1.34-10.6,2.78-15.89,4.23a1.5,1.5,0,0,0,.8,2.89Z"/><path d="M188.79,221.91c16.09,0,16.11-25,0-25s-16.11,25,0,25Z"/><path d="M273.72,223.1c16.08,0,16.11-25,0-25s-16.12,25,0,25Z"/><path d="M200.54,208.27c.76-8.16-6.37-14.28-13.6-16.24a48.76,48.76,0,0,0-13.47-1.22,38.7,38.7,0,0,0-13.57,2.32,80,80,0,0,0-13.37,7.17c-1.09.68-.09,2.41,1,1.73,7.18-4.48,14.39-8.65,23-9.13,7.68-.42,17.13-.54,23.28,4.84,3,2.66,5.08,6.41,4.69,10.53-.12,1.28,1.88,1.27,2,0Z"/><path d="M162.17,191.48c-5.44,2.51-12.65-.92-14.26-6.64a1,1,0,0,0-1.93.53c2,7,10.6,10.89,17.2,7.83,1.17-.54.15-2.26-1-1.72Z"/><path d="M175,189.48a14,14,0,0,1-8.74-8.2,1,1,0,0,0-1.23-.7,1,1,0,0,0-.69,1.23,16.17,16.17,0,0,0,10.13,9.6c1.23.39,1.76-1.54.53-1.93Z"/><path d="M195.79,200.42a17.35,17.35,0,0,0,11.31-.52,1,1,0,0,0,.7-1.23,1,1,0,0,0-1.23-.7,15.55,15.55,0,0,1-10.25.52,1,1,0,0,0-.53,1.93Z"/><path d="M198.81,201.54c-1-6.7-6.86-11.57-13.07-13.47-8.4-2.57-17.72-1-26.31-.4-1.27.09-1.28,2.09,0,2,4.17-.3,8.33-.67,12.5-.86a41.58,41.58,0,0,1,11.94.82c6.12,1.52,12,5.87,13,12.45.19,1.26,2.12.73,1.93-.54Z"/><path d="M195,154.15A62,62,0,0,0,158.55,149c-1.26.2-.73,2.13.54,1.93a59.55,59.55,0,0,1,34.94,5c1.16.55,2.18-1.17,1-1.72Z"/><path d="M263.42,208.07c.33-7.9,8.52-12.09,15.49-12.58a54.7,54.7,0,0,1,12.83,1,34.88,34.88,0,0,1,11.74,4.06,80.82,80.82,0,0,1,11.22,8.26c1,.81,2.41-.6,1.42-1.42a92.78,92.78,0,0,0-10.71-8,36.29,36.29,0,0,0-12.69-4.73c-8.36-1.47-18.25-2.63-25.44,2.91a14.22,14.22,0,0,0-5.86,10.55c-.05,1.28,1.95,1.28,2,0Z"/><path d="M300.59,198.09c6,3.84,15.07,1.15,17.93-5.42.5-1.16-1.22-2.18-1.73-1-2.43,5.6-10,8-15.19,4.7-1.09-.7-2.09,1-1,1.72Z"/><path d="M289.64,194.69a16,16,0,0,0,11.15-8c.62-1.13-1.11-2.14-1.73-1a14.19,14.19,0,0,1-9.95,7.1,1,1,0,1,0,.53,1.92Z"/><path d="M266.8,198.84A15.35,15.35,0,0,1,257,197a1,1,0,0,0-1,1.72,17.44,17.44,0,0,0,11.38,2.06,1,1,0,0,0,.7-1.23,1,1,0,0,0-1.23-.69Z"/><path d="M265.94,202.16c1.81-6.27,8.28-9.79,14.42-10.46a41.48,41.48,0,0,1,12,.78c4.07.75,8.11,1.66,12.16,2.51,1.25.26,1.79-1.67.53-1.93-8.53-1.79-17.61-4.57-26.39-3.13-6.44,1-12.79,5.19-14.67,11.7a1,1,0,0,0,1.93.53Z"/><path class="cls-1" d="M270.45,157a60.37,60.37,0,0,1,36-2.92"/><path d="M228.45,202.79a27.57,27.57,0,0,1,4.3,10.31c.71,3.72.85,7.65-2.3,10.28a35.82,35.82,0,0,1-9.67,5.29,51.19,51.19,0,0,1-10.95,3,1,1,0,0,0-.44,1.67l8.55,6.95c1,.81,2.41-.6,1.41-1.41l-8.54-7-.44,1.68a52.4,52.4,0,0,0,12-3.43c3.55-1.51,7.67-3.34,10.37-6.19s2.68-7,2.06-10.77a29.2,29.2,0,0,0-4.62-11.43c-.72-1.06-2.45-.06-1.73,1Z"/><path d="M280.24,203.3a1,1,0,0,0,0-2,1,1,0,0,0,0,2Z"/><path class="cls-2" d="M280.83,205.08a1,1,0,0,0,0-2,1,1,0,0,0,0,2Z"/><path class="cls-2" d="M197.27,204.49a1,1,0,0,0,0-2,1,1,0,0,0,0,2Z"/><path class="cls-3" d="M160.53,260.73c10.72,0,21-9.43,20.5-20.5s-9-20.5-20.5-20.5c-10.72,0-21,9.43-20.5,20.5s9,20.5,20.5,20.5Z"/><path class="cls-3" d="M296.24,263.69c10.72,0,21-9.43,20.5-20.5s-9-20.5-20.5-20.5c-10.73,0-21,9.43-20.5,20.5s9,20.5,20.5,20.5Z"/><path class="cls-3" d="M217.87,288.91c9.65,0,9.66-15,0-15s-9.67,15,0,15Z"/><path class="cls-3" d="M226.46,279.17a10.74,10.74,0,0,0-3.42.64,4.35,4.35,0,0,0-2.39,1.84,4,4,0,0,0,1.43,5.47,3.89,3.89,0,0,0,3.08.41,7.62,7.62,0,0,1,1.67-.44l-1.06.14q.34,0,.69-.06a4.17,4.17,0,0,0,2.83-1.17,4,4,0,0,0,0-5.65,4,4,0,0,0-2.83-1.18Z"/><path class="cls-3" d="M228.38,286c5.15,0,5.16-8,0-8s-5.15,8,0,8Z"/><path class="cls-3" d="M227.2,285c5.15,0,5.15-8,0-8s-5.16,8,0,8Z"/><path class="cls-3" d="M228.38,284.23c5.15,0,5.16-8,0-8s-5.15,8,0,8Z"/><path class="cls-3" d="M228.68,282.9c5.15,0,5.16-8,0-8s-5.16,8,0,8Z"/><path class="cls-3" d="M228.83,282.15c5.15,0,5.15-8,0-8s-5.16,8,0,8Z"/><path class="cls-3" d="M214.61,290.15c5.14,0,5.15-8,0-8s-5.16,8,0,8Z"/><path class="cls-3" d="M210,292c2.58,0,2.58-4,0-4s-2.57,4,0,4Z"/><path class="cls-3" d="M214.75,299.36c7.08,0,7.09-11,0-11s-7.09,11,0,11Z"/><path class="cls-3" d="M214.75,299.06c7.08,0,7.09-11,0-11s-7.09,11,0,11Z"/><path class="cls-3" d="M216.38,302.77c7.08,0,7.09-11,0-11s-7.09,11,0,11Z"/><path class="cls-3" d="M217.57,305.14c7.08,0,7.09-11,0-11s-7.09,11,0,11Z"/><path class="cls-3" d="M218.46,306.77c7.08,0,7.09-11,0-11s-7.09,11,0,11Z"/><path class="cls-3" d="M213.69,305.38a7.67,7.67,0,0,0,4.38,3.55,5.9,5.9,0,0,0,1.34.27,5.08,5.08,0,0,0,2.56-.11,5.38,5.38,0,0,0,3.64-3.26,2.71,2.71,0,0,0,.38-1.39,4.18,4.18,0,0,0-.1-2.19,4.4,4.4,0,0,0-1-1.92,4.13,4.13,0,0,0-1.59-1.44,5.59,5.59,0,0,0-2.82-.75l-1.46.2a4.16,4.16,0,0,0-1.87,1,2.93,2.93,0,0,0-1,1,4.16,4.16,0,0,0-1,1.87v0a6.15,6.15,0,0,0,.55,4.23,5.51,5.51,0,0,0,7.53,2l1.11-.86a5.53,5.53,0,0,0,1.41-2.43l0,0-5.31,4h.05l-2.78-.75.05,0-2.53-3.28v0l.56-4.23,0,.05,3.28-2.52-.07,0,1.46-.19a1.82,1.82,0,0,1-.33,0l1.46.2a2.61,2.61,0,0,1-.61-.16l1.32.55a3.14,3.14,0,0,1-.44-.25l1.11.86a2.74,2.74,0,0,1-.45-.45l.86,1.12a2.23,2.23,0,0,1-.2-.33,5.52,5.52,0,0,0-7.53-2,5.55,5.55,0,0,0-2.52,3.29,5.88,5.88,0,0,0,.55,4.23Z"/><path class="cls-3" d="M217.42,310c4.13.63,9.23.16,12.57-2.63,3-2.54,3.72-5.62,4.34-9.34.49-2.93-.77-5.93-3.84-6.77-2.64-.72-6.28.9-6.77,3.84-.17,1-.33,2-.51,3,0,.09-.21,1.3-.08.72s-.42.34,0,0c-1,1,.39-.25.46-.13a12.38,12.38,0,0,0-1.28.34,9.32,9.32,0,0,1-1.93.38c-2.93-.45-5.91.73-6.76,3.84-.72,2.6.89,6.32,3.84,6.76Z"/><path class="cls-3" d="M228.83,299.51c7.08,0,7.09-11,0-11s-7.09,11,0,11Z"/><path class="cls-3" d="M229,300.1c7.07,0,7.09-11,0-11s-7.09,11,0,11Z"/><path class="cls-3" d="M229,300.69c7.07,0,7.09-11,0-11s-7.09,11,0,11Z"/><path class="cls-3" d="M229.42,300.4c7.08,0,7.09-11,0-11s-7.09,11,0,11Z"/><path class="cls-3" d="M223.35,298.32c7.07,0,7.09-11,0-11s-7.09,11,0,11Z"/><path class="cls-3" d="M222.46,300.25c7.08,0,7.09-11,0-11s-7.09,11,0,11Z"/><path class="cls-3" d="M222.46,296.84c7.08,0,7.09-11,0-11s-7.09,11,0,11Z"/><path class="cls-3" d="M222,296.54c7.08,0,7.09-11,0-11s-7.09,11,0,11Z"/><path class="cls-3" d="M225.12,295.21c7.08,0,7.09-11,0-11s-7.09,11,0,11Z"/><path class="cls-3" d="M226.61,293.88c7.07,0,7.09-11,0-11s-7.09,11,0,11Z"/><path class="cls-3" d="M227.2,293.88h.15a4.11,4.11,0,0,0,2.12-.48,4.87,4.87,0,0,0,2.9-2.9,4.11,4.11,0,0,0,.48-2.12l-.2-1.46a5.42,5.42,0,0,0-1.41-2.43l-1.12-.86a5.41,5.41,0,0,0-2.77-.75h-.15a4.15,4.15,0,0,0-2.12.47,5,5,0,0,0-2.91,2.91,4.15,4.15,0,0,0-.47,2.12l.2,1.46a5.53,5.53,0,0,0,1.41,2.43l1.11.86a5.65,5.65,0,0,0,2.78.75Z"/><path class="cls-3" d="M227.94,295.36c7.08,0,7.09-11,0-11s-7.09,11,0,11Z"/><path class="cls-3" d="M228.38,296.54c7.08,0,7.09-11,0-11s-7.09,11,0,11Z"/><path class="cls-3" d="M228.53,297.14c7.08,0,7.09-11,0-11s-7.09,11,0,11Z"/><path class="cls-3" d="M227.2,301.47c10.94,0,11-17,0-17s-11,17,0,17Z"/><path d="M212.08,283.75c-.93-3.21,0-7.5,3.24-9.06,2.8-1.32,7.06.47,7.22,3.79a1,1,0,0,0,.73,1c2.64.49,3.66-2.19,4.91-3.95.24-.33.57-.87,1-1,.89-.24,1.46,1.23,1.74,1.85.86,1.91,1.55,4.64.89,6.7s-4,2.62-5.85,3.08a63.17,63.17,0,0,1-7.1,1.26c-3.31.44-8.24,1.23-10.48-2-.51-.72-2-.59-1.87.5a63.08,63.08,0,0,0,2.57,11.85,46.3,46.3,0,0,0,4.71,10.79c2,3.14,5.66,3.68,9.13,3.27a15,15,0,0,0,9.17-4.36,12.33,12.33,0,0,0,3.24-10.57c-.22-1.26-2.15-.72-1.93.54a10.43,10.43,0,0,1-4.64,10.24c-2.95,2-7.58,3.13-11,1.77-2-.79-2.87-2.94-3.75-4.76a58.55,58.55,0,0,1-2.49-6,60,60,0,0,1-3-12.81l-1.86.5c2,2.84,5.39,3.45,8.65,3.32A51.76,51.76,0,0,0,228,287.63c1.69-.52,3.81-1.11,5-2.55s1.12-3.59.9-5.35c-.3-2.43-1.79-8.39-5.4-7.09a5.48,5.48,0,0,0-2.47,2.52c-.4.65-1.22,2.54-2.21,2.35l.74,1c-.22-4.48-5.35-7.31-9.43-5.85-4.6,1.64-6.22,7.31-5,11.65a1,1,0,0,0,1.93-.53Z"/></g></g></svg>