<svg xmlns="http://www.w3.org/2000/svg" viewBox="0 0 448.03 507.65"><defs><style>.cls-1{fill:#fff0e3;}.cls-2{fill:#352b1f;}.cls-3{fill:none;}.cls-4{fill:#fff;}.cls-5{fill:#ff7bac;}</style></defs><g id="Layer_2" data-name="Layer 2"><g id="Layer_1-2" data-name="Layer 1"><path class="cls-1" d="M169.7,252.45a46.42,46.42,0,0,0,31.82-13.18c7.8-7.8,13.68-20.61,13.18-31.82-.52-11.63-4.35-23.71-13.18-31.82s-19.63-13.18-31.82-13.18a46.42,46.42,0,0,0-31.82,13.18c-7.81,7.81-13.68,20.61-13.18,31.82.52,11.64,4.34,23.71,13.18,31.82s19.63,13.18,31.82,13.18Z"/><path class="cls-1" d="M172.76,273.9a46.42,46.42,0,0,0,31.82-13.18c7.81-7.81,13.68-20.61,13.18-31.82-.52-11.64-4.34-23.71-13.18-31.82S185,183.9,172.76,183.9a46.42,46.42,0,0,0-31.82,13.18c-7.8,7.81-13.68,20.61-13.18,31.82.52,11.64,4.35,23.71,13.18,31.82s19.63,13.18,31.82,13.18Z"/><path class="cls-1" d="M172.76,272.37a46.42,46.42,0,0,0,31.82-13.18c7.81-7.81,13.68-20.61,13.18-31.82-.52-11.64-4.34-23.71-13.18-31.82S185,182.37,172.76,182.37a46.42,46.42,0,0,0-31.82,13.18c-7.8,7.8-13.68,20.61-13.18,31.82.52,11.64,4.35,23.71,13.18,31.82s19.63,13.18,31.82,13.18Z"/><path class="cls-1" d="M172.76,283.09a46.42,46.42,0,0,0,31.82-13.18c7.81-7.8,13.68-20.61,13.18-31.82-.52-11.64-4.34-23.71-13.18-31.82S185,193.09,172.76,193.09a46.42,46.42,0,0,0-31.82,13.18c-7.8,7.81-13.68,20.61-13.18,31.82.52,11.64,4.35,23.71,13.18,31.82s19.63,13.18,31.82,13.18Z"/><path class="cls-1" d="M179.66,295.35a46.46,46.46,0,0,0,31.82-13.18c7.8-7.81,13.68-20.61,13.18-31.82-.53-11.64-4.35-23.71-13.18-31.82s-19.63-13.18-31.82-13.18a46.42,46.42,0,0,0-31.82,13.18c-7.81,7.8-13.69,20.61-13.18,31.82.52,11.63,4.34,23.71,13.18,31.82s19.62,13.18,31.82,13.18Z"/><path class="cls-1" d="M170.46,272.37a46.42,46.42,0,0,0,31.82-13.18c7.81-7.81,13.69-20.61,13.18-31.82-.52-11.64-4.34-23.71-13.18-31.82s-19.62-13.18-31.82-13.18a46.44,46.44,0,0,0-31.82,13.18c-7.8,7.8-13.68,20.61-13.18,31.82.53,11.64,4.35,23.71,13.18,31.82s19.63,13.18,31.82,13.18Z"/><path class="cls-1" d="M176.86,247.84l1.53.77A33.47,33.47,0,0,0,195.12,254a34.06,34.06,0,0,0,17.95-.81,33.88,33.88,0,0,0,15.3-8A34,34,0,0,0,240,232.46l4.53-10.75a45.16,45.16,0,0,0,0-23.92L240,187a45.28,45.28,0,0,0-16.15-16.15l-1.53-.76a33.44,33.44,0,0,0-16.73-5.34,34.12,34.12,0,0,0-17.94.8,33.88,33.88,0,0,0-15.31,8.06,34.09,34.09,0,0,0-11.59,12.62L156.18,197a45.2,45.2,0,0,0,0,23.93l4.53,10.75a45.25,45.25,0,0,0,16.15,16.14Z"/><path class="cls-1" d="M218.72,271.6a46.42,46.42,0,0,0,31.82-13.18c7.8-7.8,13.68-20.61,13.18-31.82-.52-11.64-4.34-23.71-13.18-31.82s-19.63-13.18-31.82-13.18a46.42,46.42,0,0,0-31.82,13.18c-7.81,7.81-13.68,20.61-13.18,31.82.52,11.64,4.34,23.71,13.18,31.82s19.63,13.18,31.82,13.18Z"/><path class="cls-1" d="M178.32,245v1.53a33.78,33.78,0,0,0,3.87,17.33A40.46,40.46,0,0,0,206,287.64a33.9,33.9,0,0,0,17.34,3.88l12-1.61a45,45,0,0,0,19.85-11.57l7-9.11a44.85,44.85,0,0,0,6.15-22.71V245a33.9,33.9,0,0,0-3.88-17.34,40.53,40.53,0,0,0-23.79-23.79A33.78,33.78,0,0,0,223.32,200l-12,1.6a44.93,44.93,0,0,0-19.85,11.58l-7,9.1A44.75,44.75,0,0,0,178.32,245Z"/><path class="cls-1" d="M212.59,298.41a46.42,46.42,0,0,0,31.82-13.18c7.81-7.8,13.68-20.61,13.18-31.82-.52-11.64-4.34-23.71-13.18-31.82s-19.63-13.18-31.82-13.18a46.42,46.42,0,0,0-31.82,13.18c-7.8,7.81-13.68,20.61-13.18,31.82.52,11.64,4.35,23.71,13.18,31.82s19.63,13.18,31.82,13.18Z"/><path class="cls-1" d="M204.17,302.24A46.44,46.44,0,0,0,236,289.06c7.8-7.8,13.68-20.61,13.18-31.82-.53-11.64-4.35-23.71-13.18-31.82s-19.63-13.18-31.82-13.18a46.42,46.42,0,0,0-31.82,13.18c-7.81,7.81-13.69,20.61-13.18,31.82.52,11.64,4.34,23.71,13.18,31.82s19.62,13.18,31.82,13.18Z"/><path class="cls-1" d="M175.06,289.22A46.42,46.42,0,0,0,206.88,276c7.8-7.81,13.68-20.61,13.18-31.82-.52-11.64-4.34-23.71-13.18-31.82s-19.63-13.18-31.82-13.18a46.42,46.42,0,0,0-31.82,13.18c-7.8,7.8-13.68,20.61-13.18,31.82.52,11.64,4.34,23.71,13.18,31.82s19.63,13.18,31.82,13.18Z"/><path class="cls-1" d="M178.89,299.94a46.42,46.42,0,0,0,31.82-13.18c7.8-7.8,13.68-20.61,13.18-31.82-.52-11.64-4.34-23.71-13.18-31.82s-19.63-13.18-31.82-13.18a46.42,46.42,0,0,0-31.82,13.18c-7.81,7.81-13.68,20.61-13.18,31.82.52,11.64,4.34,23.71,13.18,31.82s19.63,13.18,31.82,13.18Z"/><path class="cls-1" d="M150.13,293.66l1.54,1.53a33.61,33.61,0,0,0,14.48,9.3,33.9,33.9,0,0,0,17.34,3.88,33.88,33.88,0,0,0,17.33-3.88,33.7,33.7,0,0,0,14.49-9.3l7-9.11a44.85,44.85,0,0,0,6.15-22.71l-1.61-12a45,45,0,0,0-11.57-19.86L213.77,230a33.72,33.72,0,0,0-14.48-9.31A33.79,33.79,0,0,0,182,216.84a33.78,33.78,0,0,0-17.33,3.87A33.82,33.82,0,0,0,150.13,230l-7,9.1A44.86,44.86,0,0,0,137,261.84l1.61,12a45.1,45.1,0,0,0,11.57,19.86Z"/><path class="cls-1" d="M191.91,319.86a46.42,46.42,0,0,0,31.82-13.18c7.81-7.81,13.68-20.61,13.18-31.82-.52-11.64-4.34-23.71-13.18-31.82s-19.63-13.18-31.82-13.18A46.42,46.42,0,0,0,160.09,243c-7.8,7.8-13.68,20.61-13.18,31.82.52,11.64,4.35,23.71,13.18,31.82s19.63,13.18,31.82,13.18Z"/><path class="cls-1" d="M199.57,326a46.39,46.39,0,0,0,31.82-13.19c7.81-7.8,13.68-20.61,13.18-31.81-.52-11.64-4.34-23.71-13.18-31.82S211.76,236,199.57,236a46.38,46.38,0,0,0-31.82,13.18C160,257,154.07,269.78,154.57,281c.52,11.63,4.34,23.7,13.18,31.81S187.38,326,199.57,326Z"/><path class="cls-1" d="M212.59,328.28a46.42,46.42,0,0,0,31.82-13.18c7.81-7.8,13.68-20.61,13.18-31.82-.52-11.64-4.34-23.71-13.18-31.82s-19.63-13.18-31.82-13.18a46.42,46.42,0,0,0-31.82,13.18c-7.8,7.81-13.68,20.61-13.18,31.82.52,11.64,4.35,23.71,13.18,31.82s19.63,13.18,31.82,13.18Z"/><path class="cls-1" d="M226.38,335.18A46.42,46.42,0,0,0,258.2,322c7.8-7.81,13.68-20.61,13.18-31.82-.52-11.64-4.35-23.71-13.18-31.82s-19.63-13.18-31.82-13.18a46.42,46.42,0,0,0-31.82,13.18c-7.81,7.8-13.68,20.61-13.18,31.82.52,11.63,4.34,23.71,13.18,31.82s19.63,13.18,31.82,13.18Z"/><path class="cls-1" d="M221,332.11a46.42,46.42,0,0,0,31.82-13.18c7.8-7.8,13.68-20.61,13.18-31.82-.52-11.64-4.35-23.71-13.18-31.82S233.21,242.11,221,242.11a46.42,46.42,0,0,0-31.82,13.18c-7.81,7.81-13.68,20.61-13.18,31.82.52,11.64,4.34,23.71,13.18,31.82s19.62,13.18,31.82,13.18Z"/><path class="cls-1" d="M217.19,332.88A46.42,46.42,0,0,0,249,319.7c7.8-7.81,13.68-20.61,13.18-31.82-.52-11.64-4.35-23.71-13.18-31.82s-19.63-13.18-31.82-13.18a46.42,46.42,0,0,0-31.82,13.18c-7.81,7.8-13.68,20.61-13.18,31.82.52,11.64,4.34,23.71,13.18,31.82s19.62,13.18,31.82,13.18Z"/><path class="cls-1" d="M211.83,331.35a46.44,46.44,0,0,0,31.82-13.18c7.8-7.81,13.68-20.61,13.18-31.82-.53-11.64-4.35-23.71-13.18-31.82S224,241.35,211.83,241.35A46.42,46.42,0,0,0,180,254.53c-7.81,7.8-13.69,20.61-13.18,31.82.52,11.63,4.34,23.71,13.18,31.82s19.62,13.18,31.82,13.18Z"/><path class="cls-1" d="M200.34,326a46.41,46.41,0,0,0,31.82-13.19c7.8-7.8,13.68-20.61,13.18-31.81-.52-11.64-4.35-23.71-13.18-31.82S212.53,236,200.34,236a46.38,46.38,0,0,0-31.82,13.18c-7.81,7.8-13.69,20.61-13.18,31.82.52,11.63,4.34,23.7,13.18,31.81S188.14,326,200.34,326Z"/><path class="cls-1" d="M183.49,309.13A46.46,46.46,0,0,0,215.31,296c7.8-7.8,13.68-20.61,13.18-31.82-.53-11.63-4.35-23.7-13.18-31.82s-19.63-13.18-31.82-13.18a46.42,46.42,0,0,0-31.82,13.18c-7.81,7.81-13.69,20.61-13.18,31.82.52,11.64,4.34,23.71,13.18,31.82s19.62,13.18,31.82,13.18Z"/><path class="cls-1" d="M174.29,291.52a46.42,46.42,0,0,0,31.82-13.18c7.81-7.81,13.69-20.61,13.18-31.82-.52-11.64-4.34-23.71-13.18-31.82s-19.62-13.18-31.82-13.18a46.44,46.44,0,0,0-31.82,13.18c-7.8,7.8-13.68,20.61-13.18,31.82.53,11.64,4.35,23.71,13.18,31.82s19.63,13.18,31.82,13.18Z"/><path class="cls-1" d="M230.21,335.18A46.42,46.42,0,0,0,262,322c7.8-7.81,13.68-20.61,13.18-31.82-.52-11.64-4.35-23.71-13.18-31.82s-19.63-13.18-31.82-13.18a46.42,46.42,0,0,0-31.82,13.18c-7.81,7.8-13.68,20.61-13.18,31.82.52,11.63,4.34,23.71,13.18,31.82s19.63,13.18,31.82,13.18Z"/><path class="cls-1" d="M241.7,335.94a46.42,46.42,0,0,0,31.82-13.18c7.8-7.8,13.68-20.61,13.18-31.82-.52-11.64-4.35-23.71-13.18-31.82s-19.63-13.18-31.82-13.18a46.42,46.42,0,0,0-31.82,13.18c-7.81,7.81-13.68,20.61-13.18,31.82.52,11.64,4.34,23.71,13.18,31.82s19.63,13.18,31.82,13.18Z"/><path class="cls-1" d="M255.49,333.64a46.42,46.42,0,0,0,31.82-13.18c7.8-7.8,13.68-20.61,13.18-31.82-.53-11.63-4.35-23.7-13.18-31.82s-19.63-13.18-31.82-13.18a46.42,46.42,0,0,0-31.82,13.18c-7.81,7.81-13.69,20.62-13.18,31.82.52,11.64,4.34,23.71,13.18,31.82s19.62,13.18,31.82,13.18Z"/><path class="cls-1" d="M264,326.24a46.44,46.44,0,0,0,31.82-13.18c7.8-7.8,13.68-20.61,13.18-31.82-.53-11.64-4.35-23.71-13.18-31.82S276.19,236.24,264,236.24a46.42,46.42,0,0,0-31.82,13.18c-7.81,7.81-13.69,20.61-13.18,31.82.52,11.64,4.34,23.71,13.18,31.82S251.8,326.24,264,326.24Z"/><path class="cls-1" d="M271.83,320.45a46.44,46.44,0,0,0,31.82-13.18c7.8-7.8,13.68-20.61,13.18-31.82-.53-11.63-4.35-23.71-13.18-31.82S284,230.45,271.83,230.45A46.42,46.42,0,0,0,240,243.63c-7.81,7.81-13.69,20.61-13.18,31.82.52,11.64,4.34,23.71,13.18,31.82s19.62,13.18,31.82,13.18Z"/><path class="cls-1" d="M266,324.88a46.42,46.42,0,0,0,31.82-13.18c7.8-7.81,13.68-20.61,13.18-31.82-.52-11.64-4.35-23.71-13.18-31.82S278.23,234.88,266,234.88a46.42,46.42,0,0,0-31.82,13.18c-7.81,7.8-13.68,20.61-13.18,31.82.52,11.64,4.34,23.71,13.18,31.82s19.63,13.18,31.82,13.18Z"/><path class="cls-1" d="M281,309.54a46.42,46.42,0,0,0,31.82-13.18c7.8-7.81,13.68-20.61,13.18-31.82-.52-11.64-4.35-23.71-13.18-31.82S293.21,219.54,281,219.54a46.42,46.42,0,0,0-31.82,13.18c-7.81,7.8-13.68,20.61-13.18,31.82.52,11.64,4.34,23.71,13.18,31.82s19.62,13.18,31.82,13.18Z"/><path class="cls-1" d="M286.8,296.28a46.42,46.42,0,0,0,31.82-13.18c7.81-7.8,13.69-20.61,13.18-31.82-.52-11.64-4.34-23.71-13.18-31.82S299,206.28,286.8,206.28A46.46,46.46,0,0,0,255,219.46c-7.8,7.81-13.68,20.61-13.18,31.82.53,11.64,4.35,23.71,13.18,31.82s19.63,13.18,31.82,13.18Z"/><path class="cls-1" d="M291.91,288.11a46.42,46.42,0,0,0,31.82-13.18c7.81-7.8,13.68-20.61,13.18-31.82-.52-11.64-4.34-23.71-13.18-31.82s-19.63-13.18-31.82-13.18a46.42,46.42,0,0,0-31.82,13.18c-7.8,7.81-13.68,20.61-13.18,31.82.52,11.64,4.35,23.71,13.18,31.82s19.63,13.18,31.82,13.18Z"/><path class="cls-1" d="M296.68,281a46.42,46.42,0,0,0,31.82-13.18c7.8-7.8,13.68-20.61,13.18-31.82-.52-11.63-4.35-23.7-13.18-31.82S308.87,191,296.68,191a46.42,46.42,0,0,0-31.82,13.18c-7.81,7.81-13.69,20.61-13.18,31.82.52,11.64,4.34,23.71,13.18,31.82S284.48,281,296.68,281Z"/><path class="cls-1" d="M271.83,270.07a46.44,46.44,0,0,0,31.82-13.18c7.8-7.8,13.68-20.61,13.18-31.82-.53-11.64-4.35-23.71-13.18-31.82S284,180.07,271.83,180.07A46.42,46.42,0,0,0,240,193.25c-7.81,7.81-13.69,20.61-13.18,31.82.52,11.64,4.34,23.71,13.18,31.82s19.62,13.18,31.82,13.18Z"/><path class="cls-1" d="M239.14,254.41A46.42,46.42,0,0,0,271,241.23c7.81-7.8,13.69-20.61,13.18-31.82-.52-11.64-4.34-23.71-13.18-31.82s-19.62-13.18-31.82-13.18a46.42,46.42,0,0,0-31.81,13.18c-7.81,7.81-13.69,20.61-13.19,31.82.53,11.64,4.35,23.71,13.19,31.82s19.62,13.18,31.81,13.18Z"/><path class="cls-1" d="M231.32,246.24a46.42,46.42,0,0,0,31.81-13.18c7.81-7.8,13.69-20.61,13.19-31.82-.53-11.64-4.35-23.71-13.19-31.82s-19.62-13.18-31.81-13.18a46.42,46.42,0,0,0-31.82,13.18c-7.81,7.81-13.69,20.61-13.18,31.82.52,11.64,4.34,23.71,13.18,31.82s19.62,13.18,31.82,13.18Z"/><path class="cls-1" d="M219.06,235.69a46.42,46.42,0,0,0,31.82-13.18c7.8-7.81,13.68-20.61,13.18-31.82-.52-11.64-4.34-23.71-13.18-31.82s-19.63-13.18-31.82-13.18a46.42,46.42,0,0,0-31.82,13.18c-7.8,7.8-13.68,20.61-13.18,31.82.52,11.64,4.34,23.71,13.18,31.82s19.63,13.18,31.82,13.18Z"/><path class="cls-1" d="M207.49,235.69a46.46,46.46,0,0,0,31.82-13.18c7.8-7.81,13.68-20.61,13.18-31.82-.53-11.64-4.35-23.71-13.18-31.82s-19.63-13.18-31.82-13.18a46.42,46.42,0,0,0-31.82,13.18c-7.81,7.8-13.69,20.61-13.18,31.82.52,11.64,4.34,23.71,13.18,31.82s19.62,13.18,31.82,13.18Z"/><path class="cls-1" d="M206.46,232.62a46.42,46.42,0,0,0,31.82-13.18c7.81-7.8,13.69-20.61,13.18-31.82-.52-11.63-4.34-23.71-13.18-31.82s-19.62-13.18-31.82-13.18a46.44,46.44,0,0,0-31.82,13.18c-7.8,7.81-13.68,20.61-13.18,31.82.53,11.64,4.35,23.71,13.18,31.82s19.63,13.18,31.82,13.18Z"/><path class="cls-1" d="M197.61,233.3a46.42,46.42,0,0,0,31.82-13.18c7.81-7.8,13.69-20.61,13.18-31.82-.52-11.63-4.34-23.7-13.18-31.82s-19.62-13.18-31.82-13.18a46.42,46.42,0,0,0-31.82,13.18c-7.8,7.81-13.68,20.61-13.18,31.82.52,11.64,4.35,23.71,13.18,31.82s19.63,13.18,31.82,13.18Z"/><path class="cls-1" d="M314.38,249.83c14.91,0,29.19-13.11,28.5-28.5s-12.52-28.5-28.5-28.5c-14.91,0-29.19,13.1-28.5,28.5s12.52,28.5,28.5,28.5Z"/><path class="cls-1" d="M320.51,250.17c14.9,0,29.19-13.11,28.5-28.5s-12.53-28.5-28.5-28.5c-14.91,0-29.19,13.1-28.5,28.5s12.52,28.5,28.5,28.5Z"/><path class="cls-1" d="M331.06,233.66c10.72,0,21-9.43,20.5-20.5s-9-20.5-20.5-20.5c-10.72,0-21,9.42-20.5,20.5s9,20.5,20.5,20.5Z"/><path class="cls-1" d="M315.4,226.85c10.72,0,21-9.43,20.5-20.5s-9-20.5-20.5-20.5c-10.72,0-21,9.43-20.5,20.5s9,20.5,20.5,20.5Z"/><path class="cls-1" d="M320.85,230.25c10.72,0,21-9.43,20.5-20.5s-9-20.5-20.5-20.5c-10.73,0-21,9.43-20.5,20.5s9,20.5,20.5,20.5Z"/><path class="cls-1" d="M301.78,220c10.73,0,21-9.43,20.5-20.5s-9-20.5-20.5-20.5c-10.72,0-21,9.43-20.5,20.5s9,20.5,20.5,20.5Z"/><path class="cls-1" d="M288.85,214.59c10.72,0,21-9.43,20.5-20.5s-9-20.5-20.5-20.5c-10.73,0-21,9.43-20.5,20.5s9,20.5,20.5,20.5Z"/><path class="cls-1" d="M274.21,208.12c10.72,0,21-9.43,20.5-20.5s-9-20.5-20.5-20.5c-10.72,0-21,9.43-20.5,20.5s9,20.5,20.5,20.5Z"/><path class="cls-1" d="M281.36,210.85c10.72,0,21-9.43,20.5-20.5s-9-20.5-20.5-20.5c-10.73,0-21,9.43-20.5,20.5s9,20.5,20.5,20.5Z"/><path class="cls-1" d="M267.4,203.7c10.72,0,21-9.43,20.5-20.5s-9-20.5-20.5-20.5c-10.72,0-21,9.43-20.5,20.5s9,20.5,20.5,20.5Z"/><path class="cls-1" d="M260.59,198.59c10.72,0,21-9.43,20.5-20.5s-9-20.5-20.5-20.5c-10.72,0-21,9.43-20.5,20.5s9,20.5,20.5,20.5Z"/><path class="cls-1" d="M248.34,193.14c10.72,0,21-9.42,20.5-20.5s-9-20.5-20.5-20.5c-10.73,0-21,9.43-20.5,20.5s9,20.5,20.5,20.5Z"/><path class="cls-1" d="M240.51,189.74c10.72,0,21-9.43,20.5-20.5s-9-20.5-20.5-20.5c-10.73,0-21,9.43-20.5,20.5s9,20.5,20.5,20.5Z"/><path class="cls-1" d="M237.44,186.34c10.73,0,21-9.43,20.5-20.5s-9-20.5-20.5-20.5c-10.72,0-21,9.43-20.5,20.5s9,20.5,20.5,20.5Z"/><path class="cls-1" d="M231.32,180.89c10.72,0,21-9.43,20.5-20.5s-9-20.5-20.5-20.5c-10.73,0-21,9.43-20.5,20.5s9,20.5,20.5,20.5Z"/><path class="cls-1" d="M221.1,175.78c10.73,0,21-9.43,20.5-20.5s-9-20.5-20.5-20.5c-10.72,0-21,9.43-20.5,20.5s9,20.5,20.5,20.5Z"/><path class="cls-1" d="M209.87,171c10.72,0,21-9.43,20.5-20.5s-9-20.5-20.5-20.5c-10.72,0-21,9.43-20.5,20.5s9,20.5,20.5,20.5Z"/><path class="cls-1" d="M185,184c10.72,0,21-9.43,20.5-20.5s-9-20.5-20.5-20.5c-10.73,0-21,9.43-20.5,20.5s9,20.5,20.5,20.5Z"/><path class="cls-1" d="M177.87,193.14c10.72,0,21-9.42,20.5-20.5s-9-20.5-20.5-20.5c-10.72,0-21,9.43-20.5,20.5s9,20.5,20.5,20.5Z"/><path class="cls-1" d="M175.49,193.49c10.72,0,21-9.43,20.5-20.5s-9-20.5-20.5-20.5c-10.73,0-21,9.42-20.5,20.5s9,20.5,20.5,20.5Z"/><path class="cls-1" d="M189.44,175.44c10.73,0,21-9.43,20.5-20.5s-9-20.5-20.5-20.5c-10.72,0-21,9.43-20.5,20.5s9,20.5,20.5,20.5Z"/><path class="cls-1" d="M195.57,169c10.72,0,21-9.42,20.5-20.5s-9-20.5-20.5-20.5c-10.72,0-21,9.43-20.5,20.5s9,20.5,20.5,20.5Z"/><path class="cls-1" d="M199,162.85c10.73,0,21-9.43,20.5-20.5s-9-20.5-20.5-20.5c-10.72,0-21,9.43-20.5,20.5s9,20.5,20.5,20.5Z"/><path class="cls-1" d="M202,162.85c10.72,0,21-9.43,20.5-20.5s-9-20.5-20.5-20.5c-10.72,0-21,9.43-20.5,20.5s9,20.5,20.5,20.5Z"/><path class="cls-1" d="M204.76,165.57c10.73,0,21-9.43,20.5-20.5s-9-20.5-20.5-20.5c-10.72,0-21,9.43-20.5,20.5s9,20.5,20.5,20.5Z"/><path class="cls-1" d="M206.8,166.93c10.73,0,21-9.43,20.5-20.5s-9-20.5-20.5-20.5c-10.72,0-21,9.43-20.5,20.5s9,20.5,20.5,20.5Z"/><path class="cls-1" d="M200.34,159.1c10.72,0,21-9.43,20.5-20.5s-9-20.5-20.5-20.5c-10.73,0-21,9.43-20.5,20.5s9,20.5,20.5,20.5Z"/><path class="cls-1" d="M198.29,136c14.16,0,14.18-22,0-22s-14.18,22,0,22Z"/><path class="cls-1" d="M199.66,137c14.15,0,14.18-22,0-22s-14.18,22,0,22Z"/><path class="cls-1" d="M198.29,131.56c14.16,0,14.18-22,0-22s-14.18,22,0,22Z"/><path class="cls-1" d="M196.93,118.07c6.44,0,6.45-10,0-10s-6.44,10,0,10Z"/><path class="cls-1" d="M195.91,115.35c6.44,0,6.45-10,0-10s-6.44,10,0,10Z"/><path class="cls-1" d="M194.89,106.9c2.57,0,2.58-4,0-4s-2.58,4,0,4Z"/><path class="cls-1" d="M195.23,105.88c2.57,0,2.58-4,0-4s-2.58,4,0,4Z"/><path class="cls-1" d="M197.61,108.26c2.58,0,2.58-4,0-4s-2.58,4,0,4Z"/><path class="cls-1" d="M201,112.35c2.57,0,2.58-4,0-4s-2.58,4,0,4Z"/><path class="cls-1" d="M343.66,204.36c7.07,0,7.09-11,0-11s-7.09,11,0,11Z"/><path class="cls-1" d="M347.06,208.44c7.08,0,7.09-11,0-11s-7.09,11,0,11Z"/><path class="cls-1" d="M346.38,204.36c7.08,0,7.09-11,0-11s-7.09,11,0,11Z"/><path class="cls-1" d="M267.36,329.71c10.46,0,20.48-9.2,20-20s-8.79-20-20-20c-10.46,0-20.49,9.2-20,20s8.79,20,20,20Z"/><path class="cls-1" d="M275.91,324.86c10.46,0,20.48-9.2,20-20s-8.79-20-20-20c-10.46,0-20.48,9.2-20,20s8.79,20,20,20Z"/><path class="cls-1" d="M278.72,321.79c10.46,0,20.48-9.2,20-20s-8.79-20-20-20c-10.46,0-20.48,9.2-20,20s8.79,20,20,20Z"/><path class="cls-1" d="M284.46,320.39c10.47,0,20.49-9.2,20-20s-8.78-20-20-20c-10.46,0-20.48,9.2-20,20s8.79,20,20,20Z"/><path class="cls-1" d="M288.68,314.77c10.46,0,20.48-9.2,20-20s-8.79-20-20-20c-10.46,0-20.49,9.2-20,20s8.78,20,20,20Z"/><path class="cls-1" d="M291.23,310.05c10.46,0,20.48-9.2,20-20s-8.79-20-20-20c-10.46,0-20.48,9.2-20,20s8.79,20,20,20Z"/><path class="cls-1" d="M293.66,307.75c10.46,0,20.48-9.2,20-20s-8.79-20-20-20c-10.47,0-20.49,9.2-20,20s8.78,20,20,20Z"/><path class="cls-1" d="M296.08,305.33c10.46,0,20.48-9.2,20-20s-8.79-20-20-20c-10.46,0-20.48,9.19-20,20s8.79,20,20,20Z"/><path class="cls-1" d="M308.85,295.92c15.44,0,15.47-24,0-24s-15.47,24,0,24Z"/><path class="cls-1" d="M315,284.69c15.45,0,15.47-24,0-24s-15.46,24,0,24Z"/><path class="cls-1" d="M203.78,331.41c15.45,0,15.47-24,0-24s-15.47,24,0,24Z"/><path class="cls-1" d="M199.06,329.62c15.44,0,15.47-24,0-24s-15.47,24,0,24Z"/><path class="cls-1" d="M195.1,327.58c15.45,0,15.47-24,0-24s-15.47,24,0,24Z"/><path class="cls-1" d="M192.8,326.05c15.45,0,15.47-24,0-24s-15.46,24,0,24Z"/><path class="cls-1" d="M190.51,325.16c15.44,0,15.47-24,0-24s-15.47,24,0,24Z"/><path class="cls-1" d="M209.14,333.9c11.59,0,11.61-18,0-18s-11.6,18,0,18Z"/><path class="cls-1" d="M212,334.79c11.59,0,11.6-18,0-18s-11.6,18,0,18Z"/><path class="cls-1" d="M214.76,335.3h1a6.78,6.78,0,0,0,3.47-.77,6.71,6.71,0,0,0,2.9-1.86,10,10,0,0,0,2.63-6.37l-.32-2.39a9.06,9.06,0,0,0-2.31-4l-1.82-1.41a9.08,9.08,0,0,0-4.55-1.23h-1a6.91,6.91,0,0,0-3.47.78,8.09,8.09,0,0,0-4.75,4.76,6.77,6.77,0,0,0-.78,3.46l.32,2.4a9,9,0,0,0,2.32,4l1.82,1.41a8.93,8.93,0,0,0,4.54,1.22Z"/><path class="cls-1" d="M220.12,335.76c4.89.48,9.91,1.17,14.83,1s9.7-1.62,14.65-1.94c11.5-.75,11.58-18.75,0-18-4.95.32-9.76,1.51-14.65,1.94s-10-.5-14.83-1-9,4.48-9,9c0,5.27,4.14,8.52,9,9Z"/><path class="cls-1" d="M155.71,271.61c-1.12-1.1.57,1.24.17.29-.14-.33-.35-.68-.52-1-.54-1,.71,1.82.12.29-.39-1-.81-2-1.25-3a49.47,49.47,0,0,0-3.08-4.93c-2.43-4-8.19-5.89-12.32-3.23s-5.83,8-3.22,12.32c.54.9,1.18,1.72,1.77,2.58.35.51.64,1,1,1.56.8,1.42-.51-1.32-.1-.29,1.2,3,2.38,5.78,4.75,8.09,3.37,3.29,9.41,3.62,12.73,0s3.6-9.21,0-12.72Z"/><path class="cls-1" d="M125.16,235.67a18.6,18.6,0,0,0,1,8.47c1.24,3.12,2.91,5.63,3.63,9l10.05-4.24a15,15,0,0,0-1.5-2.9c-3-5-9.76-2.41-10.25,2.78-.61,6.48,4.43,13.33,7.18,18.9l9.5-5.55a10.27,10.27,0,0,0-1.9-2.5c-3.47-3.43-9.22-.83-9.39,3.89a7.37,7.37,0,0,0,1.2,4.47c3.73,6.13,12.49.78,9.5-5.55l-1-2.16c-3-6.39-12.51-.82-9.5,5.55l1,2.16,9.5-5.55.3,1.08-9.39,3.89.18.27c3.39,6.28,12.62.75,9.5-5.55-1.8-3.64-6.07-9.24-5.68-13.35l-10.25,2.77a15.37,15.37,0,0,1,1.51,2.9c2.68,5.94,11.29,1.55,10.05-4.23-1.1-5.15-4.64-9.22-4.27-14.53.48-7.07-10.52-7-11,0Z"/><path class="cls-1" d="M129.26,222.65h.18l-4.75-2.73.13.26-.75-2.78a70.94,70.94,0,0,1,.27,9.45,5.5,5.5,0,0,0,11,0c.15-3.86.59-9-1.15-12.48a5.5,5.5,0,0,0-4.75-2.72h-.18a5.5,5.5,0,1,0,0,11Z"/><path class="cls-1" d="M134.79,218c-1.89-4.7.35-8.12,1.7-12.58,1.27-4.23.18-8.35,2.57-12.27,3.7-6.06-5.81-11.59-9.5-5.55-3.29,5.4-2.32,10.92-4.34,16.52s-3.32,11.13-1,16.81c2.61,6.48,13.25,3.65,10.6-2.93Z"/><path class="cls-1" d="M138.42,196.35c.07-1.56-.62-4.51.3-5.72a25.43,25.43,0,0,1,2.16-1.59,8.61,8.61,0,0,0,2.4-3.08c1.17-2.73.82-5.89-2-7.52-2.32-1.35-6.35-.77-7.53,2-.29.69-.67.76-1.77,1.6a11.08,11.08,0,0,0-3.23,3.74c-1.72,3.36-1.19,7-1.36,10.6-.34,7.07,10.66,7.05,11,0Z"/><path class="cls-1" d="M139.55,189.06l.16-2.13.07-1.07a1.53,1.53,0,0,1-.25,1c-.21.4-.18.36.1-.11s.33-.49,0,0a16.85,16.85,0,0,1,1.3-1.23c2.24-1.83,2-5.9,0-7.78-2.37-2.18-5.39-2-7.78,0a12.73,12.73,0,0,0-3.66,4.87c-.83,2-.73,4.34-.89,6.45a5.53,5.53,0,0,0,5.5,5.5,5.62,5.62,0,0,0,5.5-5.5Z"/><path class="cls-1" d="M161.3,173.76a22.86,22.86,0,0,1,3.83-4.2c1.75-1.29,3.68-2.22,5.2-3.82a32.53,32.53,0,0,0,3.36-5.07c.61-.94,3-4.67,3.42-4.67,7.08.07,7.09-10.93,0-11-6.18-.06-9.9,5.42-12.91,10.12a15.42,15.42,0,0,1-5.2,5.33,27.35,27.35,0,0,0-5.47,5.54c-4.44,5.44,3.3,13.27,7.77,7.77Z"/><path class="cls-1" d="M179.76,152.73c5.67-3,12.37-8,11.89-15.17-.37-5.7-7-7.17-10.24-2.78a22.49,22.49,0,0,1-4.43,4.34l7.78,7.78c2.71-2.22,6.33-4.41,8.51-7.16,1.9-2.41,2.1-5.09,2.59-8,.52-3.17.9-6.37,2.78-9a18.12,18.12,0,0,0,2.17-3.19c.27-.64,1.58-3.85.53-2.78,5-5-2.79-12.83-7.78-7.78-2.11,2.14-1.82,3.83-3,6.32-1.54,3.15-3.49,5.23-4.39,8.84-.67,2.7-.48,6.41-1.59,8.94-.48,1.09-5.73,4.61-7.57,6.11-5.52,4.51,2.3,12.08,7.78,7.78a32.46,32.46,0,0,0,6.14-6.57l-10.25-2.77c.17,2.52-4.65,4.72-6.44,5.68-6.25,3.32-.7,12.82,5.55,9.49Z"/><path class="cls-1" d="M223.14,140.09a27.33,27.33,0,0,0-.94,6.85,5.5,5.5,0,0,0,11,0q0-.58,0-1.17c0-.19.26-1.71.06-.82s.1-.43.13-.61c.1-.45.21-.89.33-1.33a5.5,5.5,0,0,0-10.61-2.92Z"/><path class="cls-2" d="M71.06,290.91c-.4,1.44-2.1,4.57-1.92,6q2.49-5.7.79-1.93c-.45.94-.91,1.86-1.39,2.77a89.68,89.68,0,0,1-6.64,10.57L61,309.55q-2.47,3.29,1.17-1.5c-1.48.93-2.9,3.57-4,4.92-2.75,3.27-5.58,6.47-8.39,9.68C37.59,336.53,26.23,351.08,18.8,368c-8.45,19.29-12.74,39.69-10.26,60.8C11,449.78,17.61,469,25.26,488.54c2.56,6.52,5.7,11.88,12,15.54,5.58,3.26,13.79,4.64,20,2.62,12.25-4,23.47-18.42,18.16-32-3.38-8.61-6.74-17.23-9.56-26-1.31-4.1-2.51-8.23-3.53-12.41-.58-2.37-1.11-4.75-1.56-7.15-.23-1.19-.44-2.39-.63-3.59-.43-2.9-.37-2.4.2,1.5.6-3.9-.67-8.69-.57-12.7,0-.61.63-7.1.48-7.16q-.83,5.74-.35,2.72c.13-.83.28-1.67.44-2.49a91.41,91.41,0,0,1,3.54-13c.55-1.57,1.33-3.15,1.8-4.74-2.13,7.13,0,.23.89-1.52,1.78-3.55,3.74-7,5.85-10.38,1.21-1.93,2.46-3.83,3.77-5.69.65-.93,1.31-1.86,2-2.77q2.5-3.34-1,1.19c-.39-.75,6.44-7.77,7.19-8.63,2.44-2.83,4.92-5.63,7.37-8.45,12.62-14.57,24.23-29.78,29.46-48.65,3.63-13.1-4.48-28.87-18.16-32s-28.09,4.14-32,18.16Z"/><path class="cls-2" d="M65.34,342.16c-5,11.54-9.53,23.14-12.63,35.33-3,11.94-6.16,25.3-5.62,37.64.63,14.39,7.3,25.28,13.61,37.71.66,1.3,1.26,2.63,1.91,3.94,1.67,3.4.17-.83-.54-1.38,1.36,1.05,2.13,5.67,2.7,7.41a121.27,121.27,0,0,1,4,16.15l43.45-25.29a14.05,14.05,0,0,1-2-1.91Q114,457,112,453.54c3.23,5.76,1.39,3.33.79.82-.21-.94-.39-1.89-.54-2.84.55,4.36.7,5.43.47,3.21-.14-2-.36-4-.46-6-.21-4-.21-8.06,0-12.09.08-1.72.2-3.45.36-5.17.1-1.14.22-2.29.35-3.43-.53,3.77-.65,4.64-.34,2.63a143.12,143.12,0,0,1,5.65-22.6c.2-.57,1.15-4.6,1.82-4.85q-2.3,5.32-.59,1.44c.47-1.05,1-2.09,1.46-3.13,1.76-3.63,3.71-7.15,5.8-10.6L78.31,377.77q3.28,32.72,4.79,65.56l48.45-13.13c-2.05-4.37,1.75,6.08.68,1.4-.24-1-.56-2.09-.86-3.12-1.28-4.53-.25,1.78.18,2.46-.39-.62-.23-3.15-.24-3.87,0-1.08.07-2.15.09-3.23.11-4.81-.67,1.73-.41,2.4-.57-1.46,1.33-5.49,1.77-6.93.74-2.46,2.46-3-.94,2,.6-.87,1-2,1.47-2.9s1.07-1.88,1.67-2.78c1.87-2.87,2.91-1.8-1,1.1a27.32,27.32,0,0,0,4.55-4.57q-5.16,3.84-2.71,2.09c.52-.39,1.06-.75,1.6-1.09,1.1-.7,2.25-1.32,3.41-1.91l-38.2-29.36C96.78,399,89.7,416.15,85.4,433.73c-5.45,22.23-2.83,45.11,13,62.49,9.19,10.07,27.57,10,36.77,0,9.89-10.78,9.8-26,0-36.77-3.4-3.73,2.35,4.69.4.45a28.56,28.56,0,0,1-1.41-2.68l1.49,3.39c.25-.54-1-3.59-1.22-4.43-1.43-5,.05,5.65.15.8,0-1.52,0-3.08,0-4.61-.07-5.7-1.2,4.79,0-.35.88-3.89,1.77-7.72,3-11.54,4.7-15,10.14-29.89,15.23-44.8,3.35-9.79-1.57-21.35-9.31-27.33-8.53-6.59-19.4-6.91-28.88-2-15.62,8-26.39,22.82-32,39.16-5.8,17-3.47,35,4,51,4.65,9.91,19.2,15.24,29.36,11.95C126.59,465,135.64,455,135.1,443.33q-1.5-32.85-4.79-65.56c-1.12-11.09-7.25-22.37-19.09-25.07-11.4-2.59-23.21,1.76-29.36,11.95C70.24,383.88,63.73,405,61.07,427.15a124.08,124.08,0,0,0-.34,27.58c1.34,13,4.18,26.73,14.71,35.71C84,497.72,96.78,501.06,107,494.5c10.35-6.67,14-17.49,12-29.36-2-11.26-5.76-21.74-10.33-32.2a131.51,131.51,0,0,0-6.28-12.43c-1.11-1.95-2.08-4.05-3.27-5.94-1.64-2.61,1.29,4.57.64,1.57a24.47,24.47,0,0,0-1.11-4.23c.93,1.19.21,5,.5,1.35.1-1.23.11-2.49.17-3.73.14-3.45.17-.27-.27,1.33a35.72,35.72,0,0,0,.55-3.59q1.19-7.15,2.91-14.2,1.83-7.49,4.27-14.8,1.16-3.43,2.43-6.84c.64-1.7,4-9.58,1.13-3,2.88-6.67,4.63-12.71,2.62-20-1.66-6-6.32-12.57-12-15.54-11.21-5.92-29.81-4-35.57,9.32Z"/><path class="cls-2" d="M48.81,319.39a58.75,58.75,0,0,1-4.34,6.72l4.06-5.26a58.09,58.09,0,0,1-5.32,6,26.72,26.72,0,0,0-7.61,18.38c0,6.38,2.83,14,7.61,18.39,5,4.54,11.46,7.92,18.39,7.61A27.32,27.32,0,0,0,80,363.61a79.64,79.64,0,0,0,13.74-18,27.21,27.21,0,0,0,2.62-20c-1.66-6-6.33-12.57-12-15.54-6-3.19-13.35-4.79-20-2.62-6.36,2.06-12.22,5.95-15.54,11.95Z"/><path class="cls-2" d="M63.23,368.26c13.6,0,26.63-12,26-26s-11.42-26-26-26c-13.6,0-26.63,12-26,26s11.42,26,26,26Z"/><path class="cls-2" d="M100.58,333.93c.32,1.65,1.13,3.87,1,5.57-.49-3.8-.57-4.24-.24-1.3l.17,1.87a113.63,113.63,0,0,1,.33,12.24c0,1.88-.14,3.77-.29,5.64-.06.83-.74,7.36-.23,3.11s-.42,2.22-.58,3.05c-.42,2.16-.91,4.3-1.43,6.43-3.24,13.19,4.2,28.81,18.16,32,13.42,3.05,28.51-4,32-18.16a148.84,148.84,0,0,0,1.3-64.26c-2.56-13.39-19.36-22.25-32-18.16-14.28,4.62-20.9,17.64-18.16,32Z"/><path class="cls-2" d="M158.39,363l.56-.45-25.3,6.69.77.24L123,362.79a14.74,14.74,0,0,1-5.4-11.45c.12,1.2.18,2.4.18,3.61s-.06,2.43-.18,3.63c.59-3.88.63-4.38.1-1.48-.66,2.37-1.17,4.74-2,7.08-.38,1.12-.79,2.24-1.22,3.34q2.3-5.29.58-1.44a147.45,147.45,0,0,1-14.6,23.5c-3.8,5-4.21,14.3-2.63,20,1.67,6,6.33,12.56,12,15.53,6,3.19,13.35,4.79,20,2.63,6.87-2.23,11.2-6.25,15.54-11.95,9.69-12.75,18.24-27.42,22-43.12,2.48-10.23,3.37-21.55.66-31.86A31,31,0,0,0,154.45,322c-5.09-3.28-11.52-4.11-17.34-3.33-6.42.86-10.5,3.58-15.49,7.6S114,338.66,114,344.61c0,6.38,2.84,14,7.62,18.39,5,4.55,11.46,7.92,18.38,7.61,7.31-.32,12.73-3.05,18.39-7.61Z"/><path class="cls-2" d="M149.78,376.69c13.6,0,26.63-12,26-26s-11.42-26-26-26c-13.6,0-26.63,12-26,26s11.43,26,26,26Z"/><path class="cls-2" d="M128.79,390.48c3.56,3-3.93-7.43-3.93-7.43a17.6,17.6,0,0,1,.06-8.71c.32-1.16,2.79-5.09.76-2.08.79-1.18,3.38-3.7.9-1.49a73.54,73.54,0,0,0-12.75,14c-6.25,9.37-7.28,21.73-10,32.43C98,440,89.47,462.47,98.18,485.94l47.52-20c-2.51-5.08-5-10.16-7.35-15.32-1-2.2-1.81-4.56-2.94-6.68,3,5.55.77,1.79.17.31q-.69-1.7-1.35-3.39-6-15.3-10.46-31.13-4.33-15.36-7.21-31.1-.74-4-1.36-8.09c-.19-1.21-.35-2.41-.55-3.61-.6-3.62.62,5.12.19,1.49-.7-5.75-1.32-11.48-1.77-17.25-1-13-9.11-23.73-22.54-25.53-13-1.75-24.59,6.15-28.53,18.62-8.33,26.36-6,54.25-9.3,81.34-.76,6.14,3.45,14.22,7.62,18.38,4.51,4.51,11.9,7.91,18.38,7.62,6.72-.3,13.7-2.51,18.39-7.62,5-5.42,6.72-11.14,7.61-18.38,1.5-12.18,1.73-24.45,2.42-36.69.17-3.05.36-6.1.63-9.14.1-1.22.21-2.43.34-3.64,0-.39.72-6.37.2-2s.2-1,.36-1.94c.27-1.49.56-3,.89-4.46.71-3.27,1.59-6.48,2.6-9.68l-51.07-6.91a374.06,374.06,0,0,0,12.56,72.39c6.7,23.75,16.24,46.53,27.17,68.62,5.73,11.59,21.33,15.34,32.47,10.64s19.58-18.48,15-30.67c-1-2.58-1.5-5.21-2.27-7.83-.93-3.15.1,4.8.22,1.52,0-1.19-.12-2.42-.1-3.62,0-.37-.11-4.34.26-4.45,0,0-1.1,5.91-.11,1.64.6-2.6,1.18-5.21,1.89-7.79,2.92-10.53,6-21,8.41-31.63.53-2.37,1-4.75,1.53-7.11.25-1.08,1.9-5.18,0-1.39-2.41,4.91,2.28-2.46-1,1.58-2.45,3,.09.15.69-.44,1-1,2-1.86,3-2.79a50.2,50.2,0,0,0,4.62-4.72c6.22-7.46,11-16.36,10.73-26.41-.25-9.09-3.62-19-10.74-25-5.37-4.53-11.12-7.61-18.38-7.61-6.38,0-14,2.83-18.38,7.61-8.87,9.66-11.1,27.41,0,36.77Z"/><path class="cls-2" d="M46.75,452.61h-1l13.13,3.54c3.44,2.75,4.15,3.06,2.14,1q3.54,4.71,1.18,1.32a35.84,35.84,0,0,0-2.4-4.27q2.07,5.22,1,2.45c-.29-.76-.55-1.54-.78-2.32s-1.95-7.66-.85-2.92c1.05,4.5.08-1.94,0-3-.06-1.62-.1-3.24-.22-4.85-.64-8.23-2.22-13.23-5.43-20.8-2.35-5.56-10-10.43-15.53-11.95-6.23-1.71-14.52-.94-20,2.62s-10.44,8.91-12,15.54c-1.66,7.29-.26,13.23,2.62,20-.44-1.05-2-5-1.16-1.7-.3-1.14-.39-5.74-.4-2.14,0,2.41.1,4.88.28,7.29.44,6.33,1.31,12.83,3.56,18.8C16.9,487,28,504.37,46.75,504.61c13.61.17,26.62-12.08,26-26-.64-14.24-11.42-25.82-26-26Z"/><path class="cls-2" d="M5.88,428.23c-2,12.14-3.57,24.66-.64,36.82,2.42,10.08,7.43,19.89,11.77,29.23,5.75,12.37,24.54,16.45,35.57,9.33,12.75-8.21,15.49-22.34,9.33-35.57-.79-1.71-1.56-3.43-2.34-5.14-2.68-5.89,2.06,5.29-.31-.73-1.24-3.15-2.38-6.31-3.51-9.5-1.51-4.27-.25,5.68-.1.14,0-1.79,0-3.57,0-5.36.06-1.47.15-2.94.28-4.41.59-6.9-.79,4.4.08-1,1.16-7.11,1.15-13.59-2.62-20-3.15-5.39-9.34-10.53-15.54-11.95-12.51-2.85-29.64,3.81-32,18.16Z"/><path class="cls-2" d="M54.78,432c.23,1.45.33,5.17.28,1.67,0-.61.28-6.15-.27-1.78-.59,4.74,1.63-2.63-.46,1.66-1.95,4,.5-.87.72-1.35,1.58-3.48,3.32-7,4.1-10.8a53,53,0,0,0,1.06-9.4c0-1.79.31-6-.69,1.11,1-7.24,1.23-13.45-2.62-20-3.16-5.39-9.34-10.53-15.54-11.94-6.65-1.52-14.12-1.19-20,2.62-5.26,3.39-11,9-11.95,15.54a97.33,97.33,0,0,0-1.2,10.21l0,1.66c-.06,2.29,0,2.23.23-.17.45-1.14,2.85-7.47,1-3.56a97.49,97.49,0,0,0-4,9.17c-3.43,9.78-2.38,19.25-.81,29.22,1,6,6.92,12.6,12,15.54,5.57,3.26,13.79,4.64,20,2.62S49,458,52.16,452c3.47-6.56,3.77-12.74,2.62-20Z"/><path class="cls-2" d="M16.17,387.45c-5,5-9.43,11.06-11.41,18-1,3.65-1.35,7.56-1.89,11.3-1.63,11.2-4.06,22.81.16,33.81,2.49,6.5,5.74,11.9,12,15.53,5.57,3.27,13.78,4.65,20,2.63,12.33-4,23.38-18.39,18.16-32-.35-.91-1.27-5.49-.76-1.24.53,4.47.2-.4.25-1.44s.71-5.93.05-1.51c-.72,4.75.23-1.5.3-2,.39-2.71,1-5.45,1.19-8.19.3-3.73-.42,0-1.27,1.63,2.24-4.29-3.68,3.95,0,.23,9.6-9.66,10.37-27.25,0-36.77s-26.53-10.31-36.77,0Z"/><path class="cls-2" d="M56.11,403.65a2.93,2.93,0,0,1-.27-.82l.93,6.91a13.29,13.29,0,0,1,.14-2.67,27.71,27.71,0,0,0-1.1-8.9,28.66,28.66,0,0,0-7.37-12.57c-3.63-3.6-4.82-4-8.74-5.64a30.44,30.44,0,0,0-3.4-1.41q-3.61-.51-7.23-1a19.52,19.52,0,0,0-10,2.24,19.51,19.51,0,0,0-8.36,5.37,19.53,19.53,0,0,0-5.38,8.37,19.62,19.62,0,0,0-2.24,10L4,410.49A26,26,0,0,0,10.69,422L16,426a25.94,25.94,0,0,0,13.12,3.55l.32,0-6.91-.93.29.1-6.21-2.62.26.16-5.26-4.07a2.1,2.1,0,0,1,.43.46l-4.07-5.27a3.37,3.37,0,0,1,.32.59l-2.63-6.21a5.07,5.07,0,0,1,.25,1l-.93-6.92a17.17,17.17,0,0,1-.18,2.49,9.67,9.67,0,0,0,0,1.32l.93,6.91a3,3,0,0,0,.27.83,19.62,19.62,0,0,0,4.65,8.84,19.78,19.78,0,0,0,7.3,6.7,19.24,19.24,0,0,0,9.66,3.08A19.67,19.67,0,0,0,38,435.64c6.29-2,12.36-5.94,15.54-11.95l2.62-6.21a26.17,26.17,0,0,0,0-13.83Z"/><path class="cls-2" d="M51.23,412.65,54,410.28a19.43,19.43,0,0,0,5.38-8.36,23.53,23.53,0,0,0,0-20A19.53,19.53,0,0,0,54,373.51l-5.26-4.06a25.84,25.84,0,0,0-13.12-3.55l-6.91.93a26,26,0,0,0-11.48,6.68l-2.73,2.37a19.47,19.47,0,0,0-5.38,8.37,23.51,23.51,0,0,0,0,20,19.47,19.47,0,0,0,5.38,8.37l5.26,4.07a25.94,25.94,0,0,0,13.12,3.55l6.91-.93a26,26,0,0,0,11.47-6.69Z"/><path class="cls-2" d="M35.57,410.73c13.6,0,26.63-12,26-26s-11.42-26-26-26c-13.6,0-26.63,12-26,26s11.42,26,26,26Z"/><path class="cls-2" d="M40,399.16c13.6,0,26.62-12,26-26s-11.43-26-26-26c-13.6,0-26.63,11.95-26,26s11.42,26,26,26Z"/><path class="cls-2" d="M45.78,390c13.6,0,26.63-11.95,26-26s-11.42-26-26-26c-13.6,0-26.63,12-26,26s11.43,26,26,26Z"/><path class="cls-2" d="M43.06,393c13.6,0,26.63-12,26-26s-11.42-26-26-26c-13.6,0-26.63,12-26,26s11.42,26,26,26Z"/><path class="cls-2" d="M48.17,383.16c13.6,0,26.63-12,26-26s-11.43-26-26-26c-13.6,0-26.63,11.95-26,26s11.42,26,26,26Z"/><path class="cls-2" d="M55.66,374.64c13.6,0,26.62-11.95,26-26s-11.43-26-26-26c-13.6,0-26.63,12-26,26s11.42,26,26,26Z"/><path class="cls-2" d="M61.44,367.5c13.6,0,26.63-12,26-26s-11.42-26-26-26c-13.6,0-26.63,11.95-26,26s11.43,26,26,26Z"/><path class="cls-2" d="M68.25,360c13.6,0,26.63-12,26-26s-11.42-26-26-26c-13.6,0-26.63,12-26,26s11.43,26,26,26Z"/><path class="cls-2" d="M77.44,352.18c13.6,0,26.63-12,26-26s-11.42-26-26-26c-13.6,0-26.63,12-26,26s11.43,26,26,26Z"/><path class="cls-2" d="M82.21,345.71c13.6,0,26.63-12,26-26s-11.43-26-26-26c-13.6,0-26.63,12-26,26s11.42,26,26,26Z"/><path class="cls-2" d="M89.7,333.45c13.6,0,26.63-12,26-26s-11.43-26-26-26c-13.6,0-26.63,12-26,26s11.42,26,26,26Z"/><path class="cls-2" d="M94.46,322.22c13.6,0,26.63-12,26-26s-11.42-26-26-26c-13.6,0-26.62,12-26,26s11.43,26,26,26Z"/><path class="cls-2" d="M97.19,312.69c13.6,0,26.63-12,26-26s-11.43-26-26-26c-13.6,0-26.63,12-26,26s11.42,26,26,26Z"/><path class="cls-2" d="M136.34,428.77c13.6,0,26.63-12,26-26s-11.43-26-26-26c-13.6,0-26.63,12-26,26s11.42,26,26,26Z"/><path class="cls-2" d="M136.34,431.84c13.6,0,26.63-12,26-26s-11.43-26-26-26c-13.6,0-26.63,12-26,26s11.42,26,26,26Z"/><path class="cls-2" d="M140.42,423.33c13.6,0,26.63-12,26-26s-11.42-26-26-26c-13.6,0-26.63,11.95-26,26s11.43,26,26,26Z"/><path class="cls-2" d="M122.38,493.11c13.6,0,26.63-12,26-26s-11.42-26-26-26c-13.6,0-26.63,12-26,26s11.42,26,26,26Z"/><path class="cls-2" d="M121.36,483.92c13.6,0,26.63-12,26-26s-11.43-26-26-26c-13.6,0-26.63,12-26,26s11.42,26,26,26Z"/><path class="cls-2" d="M152.34,403.58c13.6,0,26.63-12,26-26s-11.43-26-26-26c-13.6,0-26.63,12-26,26s11.42,26,26,26Z"/><path class="cls-2" d="M163.57,378.73c13.6,0,26.63-12,26-26s-11.42-26-26-26c-13.6,0-26.63,12-26,26s11.42,26,26,26Z"/><path class="cls-2" d="M169.7,379.75c13.6,0,26.63-12,26-26s-11.43-26-26-26c-13.6,0-26.63,12-26,26s11.42,26,26,26Z"/><path class="cls-2" d="M170.38,380.43c13.6,0,26.63-12,26-26s-11.42-26-26-26c-13.6,0-26.63,12-26,26s11.42,26,26,26Z"/><path class="cls-2" d="M181.27,374c9.16,0,17.93-8,17.5-17.5s-7.69-17.5-17.5-17.5c-9.15,0-17.92,8-17.5,17.5s7.69,17.5,17.5,17.5Z"/><path class="cls-2" d="M184.68,368.19c9.15,0,17.92-8.05,17.5-17.5s-7.69-17.5-17.5-17.5c-9.16,0-17.93,8.05-17.5,17.5s7.69,17.5,17.5,17.5Z"/><path class="cls-2" d="M185.7,363.76c9.15,0,17.92-8.05,17.5-17.5s-7.69-17.5-17.5-17.5c-9.16,0-17.93,8.05-17.5,17.5s7.69,17.5,17.5,17.5Z"/><path class="cls-2" d="M177.19,358.66c9.15,0,17.92-8.05,17.5-17.5s-7.69-17.5-17.5-17.5c-9.16,0-17.93,8-17.5,17.5s7.69,17.5,17.5,17.5Z"/><path class="cls-2" d="M172.38,320.78c-5.38.44,7.84,1.5,2.71.72,1.17.18,1.87,1.65.34,0a60.24,60.24,0,0,0-6.26-6c-5.27-4.38-11-8.09-16.62-12.07-2.58-1.85.6.6-.87-.65-1-.85-2.05-1.67-3.05-2.53-2-1.72-3.92-3.52-5.73-5.43-1.08-1.13-2.1-2.31-3.11-3.5,1.59,1.87.22.28-.52-.81s-1.4-2.17-2-3.3c-.39-.68-2.29-4.79-.91-1.45-3.47-8.43-11.77-15.37-21.53-12.22-8.12,2.63-16,12.46-12.22,21.53,6.58,16,17.34,27.39,31,37.64,2.59,1.93,5.24,3.76,7.9,5.59,1,.67,2,1.34,2.92,2,1.56,1.13,1.92,1.39,1.06.76-.59-.49,2.55,2.46,3.19,3.11,6.38,6.46,14,12.43,23.7,11.63,9.1-.74,18-7.51,17.5-17.5-.39-8.84-7.73-18.3-17.5-17.5Z"/><path class="cls-2" d="M194.89,346.77c10.29,0,10.31-16,0-16s-10.31,16,0,16Z"/><path class="cls-2" d="M196.25,348.13c10.3,0,10.31-16,0-16s-10.31,16,0,16Z"/><path class="cls-2" d="M195.91,347.11c10.3,0,10.31-16,0-16s-10.31,16,0,16Z"/><path class="cls-2" d="M195.91,345.75c10.3,0,10.31-16,0-16s-10.31,16,0,16Z"/><path class="cls-2" d="M195.91,352.9c10.3,0,10.31-16,0-16s-10.31,16,0,16Z"/><path class="cls-2" d="M103.2,279.44a86.15,86.15,0,0,0-.56-33.1c-1-4.52-3-8.9-3.58-13.5.23,1.66-.08-3.84-.08-4.53,0-2.33.09-4.65.18-7,.32-8.11-7.35-15.86-15.5-15.5a15.83,15.83,0,0,0-15.5,15.5,85.53,85.53,0,0,0,3.23,28.12c.66,2.28,1.22,4.56,1.72,6.88.55,2.56.24.17.41,3,.14,2.39.24,4.76.16,7.15,0,1.19-.11,2.38-.22,3.56-.18,2-.23,2.37-.15,1.2-1.29,8,2.06,17.07,10.83,19.06,7.44,1.7,17.68-2.26,19.06-10.82Z"/><path class="cls-2" d="M72.36,225.54c4.35,13.53,10.22,22.79,12.94,36.38,2.81,14,8.84,26.44,15.81,38.82,4.11,7.29,14.07,9.74,21.21,5.56a15.74,15.74,0,0,0,5.56-21.21c-6.49-11.52-10.37-20.2-13-33.19-2.56-12.51-9.14-23.88-12.59-34.61-2.48-7.7-10.86-13.48-19.06-10.82-7.72,2.5-13.49,10.8-10.83,19.07Z"/><path class="cls-2" d="M157.67,306.59c-3.23-6.68-8.12-12.39-12.93-18-1-1.16-2-2.32-3-3.49-.05-.06-2.91-3.8-1.35-1.64-.89-1.23-1.74-2.48-2.51-3.78-.51-.86-1-1.75-1.43-2.65.38,1,.37,1,0-.1-2.74-7.4-4.41-14.83-8.15-21.9-1.51-2.84-3.19-5.6-4.68-8.46-.13-.25-2-4.39-1.07-2-.26-.69-1.37-6.11-1.13-3.47-.74-8.06-6.6-15.9-15.5-15.5-7.77.34-16.29,6.85-15.5,15.5.86,9.4,4.19,17.22,8.76,25.38.79,1.41,1.6,2.81,2.35,4.24.5.94,1,1.9,1.45,2.87q-.75-2,.3.85c1.15,3.57,2,7.24,3.28,10.77,3,8.38,7.59,15.06,13.27,21.85,2.29,2.74,4.73,5.36,6.94,8.17-1.64-2.08,1.14,1.69,1.18,1.74a46.28,46.28,0,0,1,3,5.28c3.64,7.53,14.38,9.55,21.2,5.56,7.7-4.5,9.22-13.65,5.56-21.21Z"/><path class="cls-2" d="M125.22,248.43c-1.29-1.23-1.4-1.21-.31,0q.93,2.39.3-.22l-22.77,17.5.72.51L96,257l.2.9,1.56-12-.43.77,28.88,7.83c.7-10.42-1.56-20.87-4.48-30.82-1.3-4.41-2.72-8.79-4-13.22-.69-2.48-1.33-5-1.86-7.5-.23-1.12-.46-2.24-.63-3.36-.46-3,.3,3.57-.15-1.81-.67-8.06-6.65-15.89-15.5-15.5-7.82.35-16.22,6.85-15.5,15.5.89,10.66,3.62,20.65,6.71,30.83,1.32,4.37,2.62,8.76,3.58,13.23.23,1.1.45,2.21.64,3.32-.35-2.08.13,1.33.16,1.73a53.55,53.55,0,0,1,0,7.6c-1,15.62,21.58,20.71,28.88,7.82,5-8.85,1.83-17.84-6-23.39-5-3.5-12.75-2.33-17.21,1.22-5.19,4.13-6.67,9.88-5.56,16.29a24.31,24.31,0,0,0,8,13.85c6.36,5.43,15.67,6.25,21.92,0,5.56-5.57,6.39-16.47,0-21.92Z"/><path class="cls-2" d="M76.78,154.75c-6.73,14-9.09,29.14-10.93,44.43-1.86,15.51,1.93,29.45,7.68,43.71,3,7.49,10.47,13.61,19.07,10.83,7.24-2.34,14.08-11,10.83-19.07a131.36,131.36,0,0,1-6.13-17.42c-1.39-5.54-1.33-9.83-.66-16.18.41-4,1.42-9.88,2.38-14.9.56-2.92,1.2-5.82,2-8.69a44.67,44.67,0,0,1,2.52-7.06c3.51-7.29,2.24-17.09-5.56-21.21-6.94-3.66-17.45-2.24-21.21,5.56Z"/><path class="cls-2" d="M93.84,164.53a154.13,154.13,0,0,0-1,68.64c3.57,17,31.44,13.37,30.45-4.12-.48-8.35-1.19-16.74-1.29-25.11,0-1.63,0-3.28,0-4.91,0-1.09.12-2.17.21-3.25-.25,1.44-.22,1.22.11-.66.34-1.56.72-3.08,1.18-4.61l.24-.68a27.2,27.2,0,0,1,1.61-2.76L97.09,175.13a139.73,139.73,0,0,0-5,21.18c-1.22,8,2,17.05,10.83,19.06,7.59,1.73,17.5-2.3,19.07-10.82l.85-4.66c1.46-7.95-2.18-17.1-10.83-19.07-7.59-1.73-17.5,2.3-19.06,10.83l-.86,4.66,29.9,8.24A139.7,139.7,0,0,1,127,183.37c2.34-7.38-2.16-15.41-9-18.29a15.59,15.59,0,0,0-19.36,6.34c-10.69,17.22-7.43,38.46-6.34,57.63l30.44-4.12a120.06,120.06,0,0,1,1-52.16c1.92-7.86-2.5-17.17-10.82-19.06-8-1.82-17,2.4-19.07,10.82Z"/><path class="cls-2" d="M119.38,192.66a11,11,0,0,0-3.29-2.58,19.52,19.52,0,0,0-2-.83,11,11,0,0,0-2-.81,15.39,15.39,0,0,0-4.31-.58h-.14l-4.12.55-.08,0-.14.05-3.7,1.56,0,0a14.53,14.53,0,0,0-3.32,2.55A20.9,20.9,0,0,0,95,194.27a19.51,19.51,0,0,0-1.27,1.66c-.13.21-1.51,3.49-1.59,3.75a1,1,0,0,0,0,.17,17.35,17.35,0,0,0,1.56,11.94,11.85,11.85,0,0,0,4,4.35,11.7,11.7,0,0,0,5.28,2.77l4.12.56a15.48,15.48,0,0,0,7.82-2.12l3.14-2.42a15.49,15.49,0,0,0,4-6.84,1,1,0,0,1,0-.17l-1.56,3.71a.67.67,0,0,1,.09-.14l-2.43,3.13.12-.11-3.14,2.42a.93.93,0,0,1,.19-.11l-3.7,1.56a.79.79,0,0,1,.22-.06l-4.12.55H108l-4.12-.55.22.05-3.71-1.56a.71.71,0,0,1,.15.08l-3.14-2.42.11.12a11.74,11.74,0,0,0,5,3.21,14.09,14.09,0,0,0,12,0,11.65,11.65,0,0,0,5-3.21l2.43-3.14a15.32,15.32,0,0,0,2.11-7.82l-.55-4.12a15.51,15.51,0,0,0-4-6.84Z"/><path class="cls-2" d="M92.24,209.41v1a11.65,11.65,0,0,0,1.34,6,11.51,11.51,0,0,0,3.2,5,11.68,11.68,0,0,0,5,3.21,11.69,11.69,0,0,0,6,1.33l4.12-.55a15.49,15.49,0,0,0,6.84-4l2.42-3.13a15.39,15.39,0,0,0,2.12-7.83v-1a17.18,17.18,0,0,0-4.54-11,11.57,11.57,0,0,0-5-3.2,11.67,11.67,0,0,0-6-1.34l-4.12.55a15.49,15.49,0,0,0-6.84,4l-2.42,3.14a15.36,15.36,0,0,0-2.12,7.82Z"/><path class="cls-2" d="M108.42,230.7c8.11,0,15.88-7.13,15.5-15.5s-6.81-15.5-15.5-15.5c-8.11,0-15.87,7.13-15.5,15.5s6.81,15.5,15.5,15.5Z"/><path class="cls-2" d="M109.44,205.85c8.11,0,15.88-7.13,15.5-15.5s-6.81-15.5-15.5-15.5c-8.1,0-15.87,7.13-15.5,15.5s6.81,15.5,15.5,15.5Z"/><path class="cls-2" d="M109.44,208.91c8.11,0,15.88-7.13,15.5-15.5s-6.81-15.5-15.5-15.5c-8.1,0-15.87,7.13-15.5,15.5s6.81,15.5,15.5,15.5Z"/><path class="cls-2" d="M114.89,190.87c8.11,0,15.87-7.13,15.5-15.5s-6.81-15.5-15.5-15.5c-8.11,0-15.88,7.13-15.5,15.5s6.81,15.5,15.5,15.5Z"/><path class="cls-2" d="M116.93,189.51c8.11,0,15.88-7.13,15.5-15.5s-6.81-15.5-15.5-15.5c-8.11,0-15.87,7.13-15.5,15.5s6.81,15.5,15.5,15.5Z"/><path class="cls-2" d="M190.31,14.55a85.26,85.26,0,0,0-29,14.17c-8.86,6.44-17.94,12.92-25.48,20.91C120,66.42,112.64,88.28,111.4,111c-.44,8.11,7.45,15.86,15.5,15.5,8.78-.4,15-6.82,15.5-15.5.8-14.67,5.8-29.81,16.53-40.71s25.4-22.22,39.62-25.89c7.85-2,13.37-11.19,10.82-19.07-2.62-8.09-10.65-13-19.06-10.82Z"/><path class="cls-2" d="M165.22,26.56C149,32.05,134.83,43.88,123.4,56.36a158.85,158.85,0,0,0-26.76,40.8c-7.13,15.46-12.89,31.53-18.78,47.49a124.29,124.29,0,0,0-6.74,25.12c-.74,5-1.32,10-1.9,15.08-.22,1.82-.4,3.66-.67,5.48.3-2-1.67,5.29-.09,2.39L74,187.16l1.81-.74h8.24l-.94-.36c-7.58-2.93-17.33,3.22-19.06,10.83-2,8.87,2.7,15.93,10.82,19.06,6.07,2.35,13.42,0,17.91-4.45,4.16-4.15,5.17-9.7,6-15.23,1.34-9.38,1.76-17.15,3.5-25.49,1.79-8.58,5.06-16.73,8.11-24.92,2.94-7.89,5.83-15.81,9-23.63A204.07,204.07,0,0,1,129,101.66c2-3.65,4.11-7.23,6.41-10.69.92-1.4,1.88-2.78,2.85-4.14.66-.9,1.32-1.8,2-2.69-.7.94-.47.68.69-.8A141.53,141.53,0,0,1,157.4,66.69c3.77-3.19,11.54-8.7,16.06-10.23,7.66-2.6,13.51-10.78,10.82-19.07-2.46-7.61-10.84-13.61-19.06-10.83Z"/><path class="cls-2" d="M114.81,66a83.37,83.37,0,0,0-25.19,41.47l28.33-3.7-.46-1,1.56,11.94q-4.22,5.76-1.54,2.78a35.63,35.63,0,0,0,3.09-4.14,17.88,17.88,0,0,0,1.77-12.84C120.6,93,114,87.12,106.07,87.12c-9.43,0-16.79,7.84-17.27,17a7.77,7.77,0,0,0,0,2.5c0,1.86,0,1.88.12.08q1.14-2.22-.19.15,1.42-1.93-.46,0c-6.37,5.45-5.6,16.32,0,21.92,6.3,6.31,15.54,5.46,21.92,0a28.17,28.17,0,0,0,8.17-12.44c1.34-4,1.08-8.07,1.46-12.17l-2.11,7.82.65-1.08L109.08,118l1.11-.42L98.25,116l.76.34-5.56-5.56-1-2.06v-8.24l2.28-4.06a19.25,19.25,0,0,0-2,2.47,17.24,17.24,0,0,0-3.38,6.36c-1.33,5.07-.23,9.53,1.86,14.17,2.49,5.54,9.94,8.14,15.44,7.4a15.48,15.48,0,0,0,12.89-11.11,61.57,61.57,0,0,1,2.92-9c-1,2.31,1.1-2.07,1.09-2.06.73-1.4,1.51-2.79,2.34-4.14s1.72-2.67,2.63-4c1.66-2.39-.67.46,1.5-1.85s4.33-4.59,6.73-6.72c6.27-5.54,5.66-16.25,0-21.92-6.23-6.23-15.63-5.56-21.92,0Z"/><path class="cls-2" d="M84.94,107.91a15.72,15.72,0,0,1-.74,2.6c.66-1.64.6-1.64-.17,0a49.52,49.52,0,0,0-3.4,7.37,31.34,31.34,0,0,0-1.49,5.1c-.15.86-.32,1.71-.53,2.56q1.38-2.52,0-.27c-4.43,6.81-1.59,17.43,5.56,21.21a15.85,15.85,0,0,0,21.21-5.56c2.77-4.26,3.15-8.88,4.63-13.54-.45,1.43-.53,1.25.16,0,.44-.79.86-1.61,1.26-2.43a42,42,0,0,0,3.41-8.77c1.86-7.87-2.46-17.16-10.83-19.06-7.94-1.81-17.07,2.38-19.06,10.82Z"/><path class="cls-2" d="M94.29,194.94c3.32-9,6.85-18-1.26-26a16.77,16.77,0,0,0-16.85-3.78C69.52,167.58,66.6,172,64,178.35H93.85c.34,1.51-.68,2.86.27,1.86s1.7-3.2,2.36-4.56a55.38,55.38,0,0,0,4.43-12.27c1.52-7.06,1.85-14.24,4.43-21l-30.45-4.12c0,1.15.3,2,.23.39-.51,1.59-.56,1.93-.14,1,.34-.66.29-.59-.15.22s-.49.88.09.13c.89-1,.63-.67-.75,1.05a26.52,26.52,0,0,0-2.37,3.43c-3.07,5.77-4.11,12.05-4.88,18.45l30.44-4.12c.3,1.44-1.26,3.33.34,1.15.85-1.16,1.76-2.29,2.59-3.46,3-4.24,4.28-8.86,4.71-14l-30.45,4.13-.41-1.82,4.54-11-.78.88,11-4.54-1.11.12,11,4.54-.54-.53,4.54,11-.09-.76-4.54,11,.44-.56c5.12-6.61,6.44-15.48,0-21.92-5.35-5.34-16.76-6.65-21.92,0-3.68,4.74-6.31,10.29-4.34,16.4A16.45,16.45,0,0,0,85.69,161c13.13,1.77,21.81-10.5,18.75-22.65-1.88-7.49-9.6-12.09-17-11.1-8,1.08-12.79,7.43-13.43,15.22q2.31-6.36.35-2.76c-.54.78-1.11,1.55-1.7,2.3a30.69,30.69,0,0,0-3.17,5c-3.17,6.47-3.45,13.07-2,20,1.55,7.55,9.86,12.07,17,11.11,8.2-1.11,12.5-7.44,13.44-15.23-.21,1.7.08-.09.26-.75.09-.31.71-4.12.66-2.61-.07,1.91.6-2.14-.31.28q-1.48,1.85.63-.86a28.34,28.34,0,0,0,2.07-2.82,33.79,33.79,0,0,0,4.66-17.93A15.52,15.52,0,0,0,92.45,123c-8.06-1.09-14.23,3.78-17,11.1-2.92,7.69-3.53,16.22-5.23,24.24-.66,1.76-.7,2.07-.14.93-.49,1-1,2-1.54,3-.78,1.53-1.56,3-2.27,4.6-2.95,6.54-3.93,12.66-2.31,19.72C65.41,193,72.37,198.27,78.9,198c7.46-.33,12.19-4.75,14.95-11.38l.54-1.28-4,6.84.86-1.05-6.84,4-2.35.34-11-4.54.61.6-4.54-11q.87-4,.06-1.56l-.95,2.57-1.9,5.16c-2.8,7.62,3.14,17.31,10.83,19.06,8.77,2,16.06-2.66,19.07-10.82Z"/><path class="cls-2" d="M90.38,151.72c8.11,0,15.87-7.13,15.5-15.5s-6.81-15.5-15.5-15.5c-8.11,0-15.88,7.13-15.5,15.5s6.81,15.5,15.5,15.5Z"/><path class="cls-2" d="M115.85,121.23c0,1.34-.06,2.67-.12,4-.12,2.63.4-2,0,.64a47.17,47.17,0,0,1-2,7.75c-.09.28-1.16,2.85-.69,1.86a26.54,26.54,0,0,0-1.34,2.45,29,29,0,0,1-3.08,4.72l24.34,18.78c1.65-2.58-.54.12,1.47-1.89,1.32-1.31,2.58-2.71,3.79-4.12a37.27,37.27,0,0,0,7.42-12.29c3.67-10.39.11-24.65-11.71-27.9s-18.09,6-24.34,13.91c-5,6.32-11.39,12.64-14.82,20-3.74,8-1.49,21.14,9.27,22.77,7.47,1.13,14.6,1.71,22.11.7l-7.82-28.88-4.17,2.64a15.6,15.6,0,0,0-6.35,19.36c3.16,7.47,10.57,10.39,18.29,9L135,173l-8.24-29.89a37.91,37.91,0,0,0-10,4,15.5,15.5,0,0,0-7.4,15.45c.74,5.52,5.14,11.93,11.1,12.88,7.29,1.17,12.28-.11,18.36-4.05l11.9-7.7-18.78-24.35s-3.57,2.89-2,1.77a49.64,49.64,0,0,1-4.2,2.67c-15.14,8.94-5.15,32.83,11.94,28.33l2.47-.65c16.61-4.37,13.63-31.28-4.12-30.44q-7.2.33-14.42.28l15,19.62.48-1.28-4,6.84.82-1-6.84,4-2.41.33-11-4.54.6.58a15.77,15.77,0,0,0,21.92,0c5.88-5.88,6-16.05,0-21.92a17.21,17.21,0,0,0-17-4.51c-6.79,2-10.18,7.05-12.54,13.32-3.65,9.65,5.65,19.54,14.94,19.62q7.21.06,14.42-.28l-4.12-30.45-2.47.65,11.94,28.33a78.77,78.77,0,0,0,12.51-9.29c13-11.69-4-33.93-18.79-24.34l-7.93,5.13-3.17,2.06c-.35.22-4.89,2.51-2.15,1.66H130l-1.35-.22,3.7,28.33c3.21-1.81-1-.06,2.61-.88,7.92-1.79,13.32-11.35,10.83-19.06-2.78-8.57-10.51-12.4-19.07-10.83l-8.87,1.63,11.94,28.33,4.17-2.64c5.61-3.55,9.28-10.86,7.13-17.51-1.91-5.89-8.12-12.29-15-11.38a62.7,62.7,0,0,1-8.1.63c-1.2,0-2.41,0-3.61-.09-.32,0-3.65-.36-2.16-.13l9.26,22.76c.42-.9.9-1.73,1.37-2.61,2.07-3.83-1,1.22.82-1.21s3.59-4.55,5.38-6.82c3.37-4.27,6.52-9.4,10.57-13l-11,4.54,1.09,0-11-4.54q-1.41-13.53-2.8-7l.2-.78c-1,1.58-1.18,1.82-.47.73-.53.6-1.08,1.19-1.63,1.77a70.17,70.17,0,0,0-7.95,9.91c-4.11,6.46-2,15.56,4,20,5.71,4.27,15.33,4.8,20.35-1.21,10.35-12.4,16.28-27.06,16.33-43.34,0-8.1-7.14-15.87-15.5-15.5s-15.47,6.81-15.5,15.5Z"/><path class="cls-2" d="M129.19,174.19c8.11,0,15.87-7.13,15.5-15.5s-6.81-15.5-15.5-15.5c-8.11,0-15.88,7.13-15.5,15.5s6.81,15.5,15.5,15.5Z"/><path class="cls-2" d="M131.57,173.85c8.11,0,15.88-7.13,15.5-15.5s-6.81-15.5-15.5-15.5c-8.11,0-15.87,7.13-15.5,15.5s6.81,15.5,15.5,15.5Z"/><path class="cls-2" d="M145.18,168.67l.68-.34a11.71,11.71,0,0,0,4.35-4,11.52,11.52,0,0,0,2.77-5.27,11.71,11.71,0,0,0,.28-6.18,11.43,11.43,0,0,0-1.84-5.76L149,144a15.49,15.49,0,0,0-6.84-4l-4.12-.56a15.43,15.43,0,0,0-7.82,2.12l-.69.34a11.65,11.65,0,0,0-4.34,4,13.91,13.91,0,0,0-3.06,11.45,11.63,11.63,0,0,0,1.84,5.77l2.43,3.13a15.49,15.49,0,0,0,6.84,4l4.12.55a15.45,15.45,0,0,0,7.82-2.11Z"/><path class="cls-2" d="M156.44,160.64c7.1-9.69,19.41-18.4,23.86-31,2-5.55,4.19-11,6.24-16.49,2.78-7.52,3.16-14.73,2-22.6-1.15-8-11.81-13.17-19.07-10.82-8.82,2.85-12.06,10.43-10.83,19.06-.34-2.42-.42,1.94-.21.26.15-1.26-.45,1.63-.53,1.92a63.27,63.27,0,0,1-2.53,7.07c-1.07,2.61-2.23,5.19-3.18,7.84-.37,1-.75,2.1-1,3.16l-.5,1.58c.46-.85.45-.84-.05,0-.89,2,1.1-1.09-.34.6-.85,1-1.82,1.89-2.74,2.8-1.9,1.87-3.79,3.74-5.6,5.69A173.77,173.77,0,0,0,129.68,145c-4.81,6.57-1.32,17.57,5.56,21.21,8.07,4.26,16.07,1.44,21.2-5.56Z"/><path class="cls-2" d="M150.6,62.49a101.08,101.08,0,0,1-5.51,11.41,113.07,113.07,0,0,1-8.2,12.47A48.59,48.59,0,0,0,129.51,99c-1.83,4.89-1.75,10.2-3.68,15.07-2.83,7.17,2.54,15.57,9,18.29s16.11.68,19.35-6.34c3.91-8.45,8-16.82,12.25-25.09,2-3.79,3.91-7.58,6-11.3A91.79,91.79,0,0,1,177.93,81c5.28-6.41,9.86-9.22,16.66-13.49,7.57-4.75,13.94-8.54,21.65-10.64C231,52.79,231,31,216.24,26.94c-14-3.89-28.29,6.27-38.9,14.38-10.38,7.93-21.94,16.4-29,27.61-3.26,5.22-2.52,12.53,1.22,17.22,3.54,4.45,10.51,7.82,16.29,5.55l51.7-20.26-12-28.33-29.88,17.2C166.27,65.77,156,71,150.65,81.1a15.7,15.7,0,0,0,17.51,22.77,147.79,147.79,0,0,0,35.59-13.12L188.11,64a43.87,43.87,0,0,0-16.25,15.53c-4.35,6.86-1.67,17.39,5.56,21.2a15.82,15.82,0,0,0,21.2-5.56c1-1.5,1.07-1.66.17-.47a27.45,27.45,0,0,1,2-2.14q2.05-1.8.36-.31a24.26,24.26,0,0,1,2.56-1.48c7.37-4,9.69-14.17,5.56-21.21C204.9,62,195.57,60.13,188.11,64a113.22,113.22,0,0,1-28.19,10l17.5,22.77c1-1.53.93-1.69-.06-.46a20.67,20.67,0,0,1,2-2.06c-2,1.87,2.24-1.47,2.85-1.84,4.1-2.51,8.33-4.83,12.5-7.23l26.56-15.29a15.51,15.51,0,0,0,6.34-19.35c-2.74-6.49-11.07-11.8-18.28-9l-51.7,20.27,17.5,22.77c1-1.54,1.18-1.81.4-.81q1.06-1.23,2.22-2.37c1.53-1.54,3.19-3,4.82-4.4q5.31-4.65,10.77-9.15a98,98,0,0,1,9.71-6.8c2-1.22,4.06-2.3,6.13-3.4q2.7-1.23,1-.52,4.09-1.05-2.16-.29V26.94c-9.86,2.7-19,7.51-27.61,12.87-8.26,5.12-16.68,10.73-23.26,18-13.35,14.7-21.49,34.77-29.74,52.61l28.33,11.94c1.57-4,2-10.37,2.93-13.1.81-2.3,5-7,7.09-10a127.84,127.84,0,0,0,14.75-28.45c2.93-7.58-3.22-17.33-10.82-19.06-8.88-2-15.93,2.7-19.07,10.82Z"/><path class="cls-2" d="M154.72,156.49c8.11,0,15.87-7.13,15.5-15.5s-6.81-15.5-15.5-15.5c-8.11,0-15.88,7.12-15.5,15.5s6.81,15.5,15.5,15.5Z"/><path class="cls-2" d="M185.66,118.5a14.78,14.78,0,0,1,0-3.7l-.55,4.12a16.37,16.37,0,0,1,.82-3l-1.56,3.71a14.54,14.54,0,0,1,1.52-2.69c2.19-3.13,2.54-8.38,1.56-11.94a15.82,15.82,0,0,0-7.13-9.27c-3.59-1.9-8-2.85-11.94-1.56a17.46,17.46,0,0,0-9.26,7.12,25.37,25.37,0,0,0-3.66,8.15,25.7,25.7,0,0,0-.82,9c.5,4.25,1.4,7.82,4.54,11a15.76,15.76,0,0,0,11,4.54c4-.18,8.17-1.5,11-4.54,2.59-2.82,5-7,4.54-11Z"/><path class="cls-2" d="M176.17,124.49c8.1,0,15.87-7.13,15.5-15.5s-6.81-15.5-15.5-15.5c-8.11,0-15.88,7.12-15.5,15.5s6.81,15.5,15.5,15.5Z"/><path class="cls-2" d="M176.17,120.4c8.1,0,15.87-7.13,15.5-15.5s-6.81-15.5-15.5-15.5c-8.11,0-15.88,7.13-15.5,15.5s6.81,15.5,15.5,15.5Z"/><path class="cls-2" d="M175.83,116c8.1,0,15.87-7.12,15.5-15.5S184.52,85,175.83,85c-8.11,0-15.88,7.13-15.5,15.5s6.81,15.5,15.5,15.5Z"/><path class="cls-2" d="M178.21,111.89c8.11,0,15.87-7.13,15.5-15.5s-6.81-15.5-15.5-15.5c-8.11,0-15.88,7.13-15.5,15.5s6.81,15.5,15.5,15.5Z"/><path class="cls-2" d="M203.06,103.72c8.11,0,15.87-7.13,15.5-15.5s-6.81-15.5-15.5-15.5c-8.11,0-15.88,7.13-15.5,15.5s6.81,15.5,15.5,15.5Z"/><path class="cls-2" d="M169.43,52.81v.35a32.89,32.89,0,0,0,3.75,16.76,32.56,32.56,0,0,0,9,14,32.61,32.61,0,0,0,14,9,32.87,32.87,0,0,0,16.76,3.75L224.5,95.1a43.4,43.4,0,0,0,19.19-11.19l6.8-8.8a43.18,43.18,0,0,0,5.94-22v-.35a32.73,32.73,0,0,0-3.74-16.75,32.65,32.65,0,0,0-9-14,32.61,32.61,0,0,0-14-9,32.85,32.85,0,0,0-16.76-3.75l-11.56,1.56a43.44,43.44,0,0,0-19.2,11.19l-6.8,8.8a43.38,43.38,0,0,0-5.94,22Z"/><path class="cls-2" d="M229.27,92.57A44.86,44.86,0,0,0,260,79.83c7.55-7.55,13.23-19.92,12.74-30.76-1-23.57-19.11-43.5-43.5-43.5a44.88,44.88,0,0,0-30.76,12.74c-7.54,7.55-13.22,19.92-12.74,30.76,1.06,23.57,19.12,43.5,43.5,43.5Z"/><path class="cls-2" d="M244.93,90.19a44.91,44.91,0,0,0,30.76-12.74c7.55-7.55,13.23-19.93,12.74-30.76-1.05-23.57-19.11-43.5-43.5-43.5a44.88,44.88,0,0,0-30.76,12.74c-7.54,7.54-13.22,19.92-12.74,30.76,1.06,23.57,19.12,43.5,43.5,43.5Z"/><path class="cls-2" d="M232.22,77.79l.34.34a32.53,32.53,0,0,0,14,9,32.75,32.75,0,0,0,16.76,3.75,32.73,32.73,0,0,0,16.75-3.75,32.53,32.53,0,0,0,14-9l6.81-8.81a43.38,43.38,0,0,0,5.94-21.95L305.26,35.8a43.46,43.46,0,0,0-11.19-19.19l-.34-.34a32.65,32.65,0,0,0-14-9A32.74,32.74,0,0,0,263,3.53a32.73,32.73,0,0,0-16.75,3.74,32.65,32.65,0,0,0-14,9l-6.81,8.8a43.44,43.44,0,0,0-5.94,22L221,58.59a43.44,43.44,0,0,0,11.19,19.2Z"/><path class="cls-2" d="M275.91,95.29a44.88,44.88,0,0,0,30.76-12.74c7.54-7.54,13.23-19.92,12.74-30.76-1.05-23.56-19.11-43.5-43.5-43.5A44.93,44.93,0,0,0,245.15,21c-7.54,7.55-13.22,19.93-12.74,30.76,1.06,23.57,19.11,43.5,43.5,43.5Z"/><path class="cls-2" d="M252.08,89.51a44.93,44.93,0,0,0,30.76-12.74c7.55-7.55,13.23-19.93,12.74-30.76-1.05-23.57-19.11-43.5-43.5-43.5a44.88,44.88,0,0,0-30.76,12.74C213.78,22.79,208.1,35.17,208.58,46c1.06,23.56,19.11,43.5,43.5,43.5Z"/><path class="cls-2" d="M285.78,100.74A44.86,44.86,0,0,0,316.54,88c7.55-7.55,13.23-19.92,12.74-30.76-1-23.57-19.11-43.5-43.5-43.5A44.88,44.88,0,0,0,255,26.48C247.48,34,241.8,46.4,242.28,57.24c1.06,23.57,19.12,43.5,43.5,43.5Z"/><path class="cls-2" d="M295,107.55a44.85,44.85,0,0,0,30.76-12.74c7.55-7.55,13.23-19.93,12.74-30.76-1.05-23.57-19.11-43.5-43.5-43.5a44.84,44.84,0,0,0-30.75,12.74c-7.55,7.54-13.23,19.92-12.75,30.76,1.06,23.57,19.12,43.5,43.5,43.5Z"/><path class="cls-2" d="M303.14,114a44.89,44.89,0,0,0,30.76-12.74c7.55-7.55,13.23-19.93,12.74-30.76C345.59,47,327.53,27,303.14,27a44.84,44.84,0,0,0-30.75,12.74c-7.55,7.54-13.23,19.92-12.75,30.76,1.06,23.57,19.12,43.5,43.5,43.5Z"/><path class="cls-2" d="M268.08,136.49a44.89,44.89,0,0,0,30.76-12.75c7.55-7.54,13.23-19.92,12.74-30.75-1.05-23.57-19.11-43.5-43.5-43.5a44.88,44.88,0,0,0-30.76,12.74C229.78,69.77,224.1,82.15,224.58,93c1.06,23.56,19.11,43.5,43.5,43.5Z"/><path class="cls-2" d="M254.12,132.06a44.86,44.86,0,0,0,30.76-12.74c7.55-7.55,13.23-19.92,12.74-30.76-1.05-23.57-19.11-43.5-43.5-43.5A44.88,44.88,0,0,0,223.36,57.8c-7.54,7.55-13.22,19.92-12.74,30.76,1.06,23.57,19.12,43.5,43.5,43.5Z"/><path class="cls-2" d="M248.34,130a44.93,44.93,0,0,0,30.76-12.74c7.54-7.55,13.22-19.93,12.74-30.76C290.78,63,272.72,43,248.34,43a44.86,44.86,0,0,0-30.76,12.74C210,63.3,204.35,75.68,204.84,86.52c1,23.57,19.11,43.5,43.5,43.5Z"/><path class="cls-2" d="M241.53,127a44.88,44.88,0,0,0,30.76-12.74c7.54-7.54,13.22-19.92,12.74-30.76C284,59.88,265.91,40,241.53,40a44.91,44.91,0,0,0-30.76,12.74c-7.55,7.55-13.23,19.93-12.74,30.76,1.05,23.57,19.11,43.5,43.5,43.5Z"/><path class="cls-2" d="M237.78,125.93a44.86,44.86,0,0,0,30.76-12.74c7.55-7.54,13.23-19.92,12.74-30.76-1-23.57-19.11-43.5-43.5-43.5A44.88,44.88,0,0,0,207,51.67c-7.54,7.55-13.22,19.93-12.74,30.76,1.06,23.57,19.12,43.5,43.5,43.5Z"/><path class="cls-2" d="M235.74,124.91a44.88,44.88,0,0,0,30.76-12.74c7.54-7.54,13.23-19.92,12.74-30.76-1.05-23.57-19.11-43.5-43.5-43.5A44.88,44.88,0,0,0,205,50.65c-7.54,7.55-13.22,19.92-12.74,30.76,1.06,23.57,19.11,43.5,43.5,43.5Z"/><path class="cls-2" d="M243.91,133.76A44.88,44.88,0,0,0,274.67,121c7.54-7.54,13.23-19.92,12.74-30.76-1.05-23.57-19.11-43.5-43.5-43.5A44.88,44.88,0,0,0,213.15,59.5c-7.54,7.55-13.22,19.93-12.74,30.76,1.06,23.57,19.11,43.5,43.5,43.5Z"/><path class="cls-2" d="M241.19,131.38A44.88,44.88,0,0,0,272,118.64c7.54-7.55,13.22-19.93,12.74-30.76-1.06-23.57-19.12-43.5-43.5-43.5a44.86,44.86,0,0,0-30.76,12.74C202.88,64.66,197.2,77,197.69,87.88c1.05,23.57,19.11,43.5,43.5,43.5Z"/><path class="cls-2" d="M251.74,139.89a44.88,44.88,0,0,0,30.76-12.74c7.54-7.55,13.23-19.92,12.74-30.76-1.05-23.57-19.11-43.5-43.5-43.5A44.88,44.88,0,0,0,221,65.63c-7.54,7.55-13.22,19.92-12.74,30.76,1.06,23.57,19.11,43.5,43.5,43.5Z"/><path class="cls-2" d="M250,139.55a44.88,44.88,0,0,0,30.76-12.74c7.54-7.55,13.22-19.93,12.74-30.76-1.06-23.57-19.11-43.5-43.5-43.5a44.86,44.86,0,0,0-30.76,12.74c-7.55,7.54-13.23,19.92-12.74,30.76,1.05,23.57,19.11,43.5,43.5,43.5Z"/><path class="cls-2" d="M257.19,144.66A44.89,44.89,0,0,0,288,131.91c7.54-7.54,13.22-19.92,12.74-30.75-1.06-23.57-19.12-43.5-43.5-43.5A44.86,44.86,0,0,0,226.43,70.4c-7.55,7.54-13.23,19.92-12.74,30.76,1.05,23.56,19.11,43.5,43.5,43.5Z"/><path class="cls-2" d="M268.76,151.12a44.86,44.86,0,0,0,30.76-12.74c7.55-7.54,13.23-19.92,12.74-30.76-1.05-23.56-19.11-43.5-43.5-43.5A44.93,44.93,0,0,0,238,76.86c-7.54,7.55-13.22,19.93-12.74,30.76,1.06,23.57,19.12,43.5,43.5,43.5Z"/><path class="cls-2" d="M266.38,149.42a44.88,44.88,0,0,0,30.76-12.74c7.54-7.54,13.22-19.92,12.74-30.76-1.06-23.57-19.11-43.5-43.5-43.5a44.88,44.88,0,0,0-30.76,12.74c-7.54,7.55-13.23,19.93-12.74,30.76,1.05,23.57,19.11,43.5,43.5,43.5Z"/><path class="cls-2" d="M266.38,151.8a44.88,44.88,0,0,0,30.76-12.74c7.54-7.54,13.22-19.92,12.74-30.76-1.06-23.56-19.11-43.5-43.5-43.5a44.89,44.89,0,0,0-30.76,12.75c-7.54,7.54-13.23,19.92-12.74,30.75,1.05,23.57,19.11,43.5,43.5,43.5Z"/><path class="cls-2" d="M244.47,144.51l.34.34a32.71,32.71,0,0,0,14,9,32.74,32.74,0,0,0,16.76,3.74,32.74,32.74,0,0,0,16.76-3.74,32.71,32.71,0,0,0,14-9l6.8-8.8a43.24,43.24,0,0,0,5.94-22l-1.55-11.56a43.53,43.53,0,0,0-11.19-19.2L306,83a32.59,32.59,0,0,0-14-9,32.75,32.75,0,0,0-16.76-3.75A32.75,32.75,0,0,0,258.47,74a32.59,32.59,0,0,0-14,9l-6.8,8.81a43.18,43.18,0,0,0-5.94,22l1.55,11.57a43.55,43.55,0,0,0,11.19,19.19Z"/><path class="cls-2" d="M289.53,163a44.88,44.88,0,0,0,30.76-12.74c7.54-7.55,13.22-19.93,12.74-30.76C332,96,313.91,76,289.53,76a44.86,44.86,0,0,0-30.76,12.74c-7.55,7.54-13.23,19.92-12.74,30.76,1.05,23.57,19.11,43.5,43.5,43.5Z"/><path class="cls-2" d="M289.53,166.78A44.88,44.88,0,0,0,320.29,154c7.54-7.54,13.22-19.92,12.74-30.76-1.06-23.57-19.12-43.5-43.5-43.5a44.91,44.91,0,0,0-30.76,12.74c-7.55,7.55-13.23,19.93-12.74,30.76,1.05,23.57,19.11,43.5,43.5,43.5Z"/><path class="cls-2" d="M304.85,173.59a44.88,44.88,0,0,0,30.76-12.74c7.54-7.54,13.22-19.92,12.74-30.76-1.06-23.57-19.12-43.5-43.5-43.5a44.86,44.86,0,0,0-30.76,12.74c-7.55,7.55-13.23,19.93-12.74,30.76,1,23.57,19.11,43.5,43.5,43.5Z"/><path class="cls-2" d="M318.8,179.72A44.85,44.85,0,0,0,349.56,167c7.55-7.55,13.23-19.92,12.74-30.76-1.05-23.57-19.11-43.5-43.5-43.5a44.84,44.84,0,0,0-30.75,12.74c-7.55,7.54-13.23,19.92-12.75,30.76,1.06,23.57,19.12,43.5,43.5,43.5Z"/><path class="cls-2" d="M321.19,180.4A44.88,44.88,0,0,0,352,167.66c7.54-7.55,13.22-19.92,12.74-30.76-1.06-23.57-19.12-43.5-43.5-43.5a44.86,44.86,0,0,0-30.76,12.74c-7.55,7.55-13.23,19.92-12.74,30.76,1.05,23.57,19.11,43.5,43.5,43.5Z"/><path class="cls-2" d="M312.34,177.34A44.93,44.93,0,0,0,343.1,164.6c7.54-7.55,13.22-19.93,12.74-30.76-1.06-23.57-19.12-43.5-43.5-43.5a44.86,44.86,0,0,0-30.76,12.74c-7.55,7.54-13.23,19.92-12.74,30.76,1.05,23.56,19.11,43.5,43.5,43.5Z"/><path class="cls-2" d="M328.34,185.85a44.93,44.93,0,0,0,30.76-12.74c7.54-7.55,13.22-19.93,12.74-30.76-1.06-23.57-19.12-43.5-43.5-43.5a44.86,44.86,0,0,0-30.76,12.74c-7.55,7.54-13.23,19.92-12.74,30.76,1.05,23.57,19.11,43.5,43.5,43.5Z"/><path class="cls-2" d="M344.34,191.29a44.88,44.88,0,0,0,30.76-12.74c7.54-7.54,13.22-19.92,12.74-30.76-1.06-23.56-19.12-43.5-43.5-43.5A44.91,44.91,0,0,0,313.58,117c-7.55,7.55-13.23,19.93-12.74,30.76,1.05,23.57,19.11,43.5,43.5,43.5Z"/><path class="cls-2" d="M351.49,192.66a44.85,44.85,0,0,0,30.75-12.75c7.55-7.54,13.23-19.92,12.75-30.75-1.06-23.57-19.12-43.5-43.5-43.5a44.85,44.85,0,0,0-30.76,12.74c-7.55,7.54-13.23,19.92-12.74,30.76,1.05,23.56,19.11,43.5,43.5,43.5Z"/><path class="cls-2" d="M342.63,173.93a44.86,44.86,0,0,0,30.76-12.74c7.55-7.54,13.23-19.92,12.74-30.76-1.05-23.57-19.11-43.5-43.5-43.5a44.84,44.84,0,0,0-30.75,12.74c-7.55,7.55-13.23,19.93-12.75,30.76,1.06,23.57,19.12,43.5,43.5,43.5Z"/><path class="cls-2" d="M345.36,180.4a44.88,44.88,0,0,0,30.76-12.74c7.54-7.55,13.22-19.92,12.74-30.76-1.06-23.57-19.12-43.5-43.5-43.5a44.86,44.86,0,0,0-30.76,12.74c-7.55,7.55-13.23,19.92-12.74,30.76,1.05,23.57,19.11,43.5,43.5,43.5Z"/><path class="cls-2" d="M336.85,163.38a44.88,44.88,0,0,0,30.76-12.74c7.54-7.55,13.22-19.93,12.74-30.76-1.06-23.57-19.12-43.5-43.5-43.5a44.86,44.86,0,0,0-30.76,12.74c-7.55,7.54-13.23,19.92-12.74,30.76,1,23.57,19.11,43.5,43.5,43.5Z"/><path class="cls-2" d="M332.08,155.21a44.88,44.88,0,0,0,30.76-12.74c7.55-7.55,13.23-19.93,12.74-30.76-1.05-23.57-19.11-43.5-43.5-43.5A44.88,44.88,0,0,0,301.32,81c-7.54,7.54-13.22,19.92-12.74,30.76,1.06,23.57,19.11,43.5,43.5,43.5Z"/><path class="cls-2" d="M326.29,144.66a44.87,44.87,0,0,0,30.76-12.75c7.55-7.54,13.23-19.92,12.74-30.75-1.05-23.57-19.11-43.5-43.5-43.5A44.88,44.88,0,0,0,295.53,70.4c-7.54,7.54-13.22,19.92-12.74,30.76,1.06,23.56,19.12,43.5,43.5,43.5Z"/><path class="cls-2" d="M316.42,130.36a44.86,44.86,0,0,0,30.76-12.74c7.55-7.55,13.23-19.93,12.74-30.76-1.05-23.57-19.11-43.5-43.5-43.5A44.88,44.88,0,0,0,285.66,56.1c-7.54,7.54-13.22,19.92-12.74,30.76,1.06,23.57,19.11,43.5,43.5,43.5Z"/><path class="cls-2" d="M310.63,122.87a44.86,44.86,0,0,0,30.76-12.74c7.55-7.55,13.23-19.93,12.74-30.76-1.05-23.57-19.11-43.5-43.5-43.5a44.84,44.84,0,0,0-30.75,12.74c-7.55,7.54-13.23,19.92-12.75,30.76,1.06,23.57,19.12,43.5,43.5,43.5Z"/><path class="cls-2" d="M320.85,136.83a44.89,44.89,0,0,0,30.76-12.75c7.54-7.54,13.22-19.92,12.74-30.75-1.06-23.57-19.12-43.5-43.5-43.5a44.86,44.86,0,0,0-30.76,12.74c-7.55,7.54-13.23,19.92-12.74,30.76,1,23.56,19.11,43.5,43.5,43.5Z"/><path class="cls-2" d="M311,410.87a44.85,44.85,0,0,0,30.76-12.74c7.55-7.55,13.23-19.93,12.74-30.76-1.05-23.57-19.11-43.5-43.5-43.5a44.84,44.84,0,0,0-30.75,12.74c-7.55,7.54-13.23,19.92-12.75,30.76,1.06,23.57,19.12,43.5,43.5,43.5Z"/><path class="cls-2" d="M311.32,404.74A44.84,44.84,0,0,0,342.07,392c7.55-7.55,13.23-19.92,12.75-30.76-1.06-23.57-19.12-43.5-43.5-43.5a44.85,44.85,0,0,0-30.76,12.74C273,338,267.33,350.4,267.82,361.24c1.05,23.57,19.11,43.5,43.5,43.5Z"/><path class="cls-2" d="M337.84,391.41l1.22,0-21.95-5.93,1.12.73-8.8-6.8a42.79,42.79,0,0,1,4.09,4.21l-6.8-8.8a40,40,0,0,1,4.57,7.51L306.9,372a39.51,39.51,0,0,1,2.75,9.89l-1.55-11.56a39.75,39.75,0,0,1-.06,8.79l1.55-11.56c-.24,1.47-.54,2.87-.92,4.31a45.26,45.26,0,0,0,4.39,33.52c5.28,9,15.62,17.63,26,20,11.13,2.53,23.63,2,33.51-4.39,9.48-6.11,17.06-14.86,20-26,3.81-14.45,4.07-31.4-1.49-45.45-4.33-10.94-8.44-18.38-16-27.39a50.12,50.12,0,0,0-37.2-17.73c-22.77-.79-44.53,20.57-43.5,43.5,1.08,24.24,19.11,42.66,43.5,43.5Z"/><path class="cls-2" d="M294.62,380.32c.83,6.35,1.27,12.91,3.12,19.09A118.54,118.54,0,0,0,305,417a32.83,32.83,0,0,0,11.2,12.21,39.1,39.1,0,0,0,32.14,8.56,32.31,32.31,0,0,0,16.17-5.16c9.29-6,17.47-14.91,20-26L386,395a43.42,43.42,0,0,0-5.94-22c-.45-.93-.87-1.86-1.28-2.8l4.38,10.39a49.3,49.3,0,0,1-3-10.87l1.55,11.56-.13-1a32.75,32.75,0,0,0-3.75-16.76,39.12,39.12,0,0,0-23-23,32.76,32.76,0,0,0-16.76-3.74c-11.25.5-22.92,4.19-30.76,12.74l-6.8,8.8a43.19,43.19,0,0,0-5.94,22Z"/><path class="cls-2" d="M371.91,361.17a44.93,44.93,0,0,0,30.76-12.74c7.54-7.55,13.23-19.93,12.74-30.76-1.05-23.57-19.11-43.5-43.5-43.5a44.88,44.88,0,0,0-30.76,12.74c-7.54,7.54-13.22,19.92-12.74,30.76,1.06,23.56,19.11,43.5,43.5,43.5Z"/><path class="cls-2" d="M324.45,299l-.1,1.35,1.56-11.56-.34,1.3L330,279.65a10.45,10.45,0,0,1-1.28,2.43l6.8-8.81a25.87,25.87,0,0,1-4.35,4.21l8.8-6.8c-10.06,7.73-15.06,11.78-22.45,22.19-2.33,3.3-4.32,6.84-6.4,10.3l-7.19,11.95c-6.55,10.9-10.08,22-8.37,34.72,2.43,18.08,15.32,33.66,33.3,38.35a81.23,81.23,0,0,0,20,2.75,53.41,53.41,0,0,0,28.41-8.29c9-5.85,14.09-13.28,20.42-21.67l-6.8,8.8a13,13,0,0,1,1.72-1.83l-8.81,6.8a7.7,7.7,0,0,1,2.1-1.33l-10.39,4.38,1.33-.42-11.56,1.56a7,7,0,0,1,2.69,0l-11.56-1.56a9.66,9.66,0,0,1,2.62.89l-10.39-4.39a13.68,13.68,0,0,1,2.44,1.6l-8.8-6.81a25.67,25.67,0,0,1,3.07,3.27l-6.8-8.81a37.17,37.17,0,0,1,3,5.52l-4.39-10.39a51.89,51.89,0,0,1,2.84,10.9l-1.55-11.57a121.47,121.47,0,0,1,.16,31.07l1.56-11.56a60.75,60.75,0,0,1-3.42,13l4.38-10.39a47.22,47.22,0,0,1-5.24,9.19l6.8-8.81a38.41,38.41,0,0,1-6.34,6.34l8.81-6.8a31.31,31.31,0,0,1-4.92,2.93l10.39-4.39-1.18.3,11.56-1.55-1.18-.09,22,5.94-1-.48,8.81,6.8a24.06,24.06,0,0,1-2.84-2.87l6.8,8.8c-2.88-3.78-4.76-8-6.7-12.35-3.35-7.42-7.94-13.34-13.14-19.72-9-11-29.14-16-42.32-11.18-11.52,4.17-20.41,9.59-26.92,20.32A48.35,48.35,0,0,0,299,384.94c-1.86,7.16-1.83,15.28-2.3,22.73l81.06-21.95c-2.8-4.33-5.68-8.6-8.68-12.78-6.48-9-12.71-19-22.56-24.71-17.91-10.32-41.18-9-56.27,6.09-10.26,10.27-14.31,24.88-14,39.08l85.45-11.57-4.56-13.61c-3.59-10.74-10-20.16-20-26-9.32-5.46-23.06-7.77-33.52-4.39s-20.68,9.93-26,20l-4.39,10.39a43.85,43.85,0,0,0,0,23.13l1.8,12.41c1.45,10,11.69,21.13,20,26,9.32,5.46,23.07,7.77,33.52,4.39s20.68-9.93,26-20l4.38-10.39a43.85,43.85,0,0,0,0-23.13l-1.8-12.41-83.89,23.13L277.77,405c6.92,20.68,25.65,34.13,47.73,31.16,20.83-2.8,38.16-20.95,37.71-42.72a38.26,38.26,0,0,1,.21-4.91l-1.56,11.56a14.37,14.37,0,0,1,.54-2.59L358,407.86l.54-.82-26,20,1.13-.45H310.55l1.24.33-10.39-4.39,1.19.84-8.8-6.81,1,1.08-6.8-8.81q7.72,10.13,14.64,20.81c10.12,15.66,30.35,26.06,49.12,20a51.77,51.77,0,0,0,19.2-11.19c8.49-7.8,12-19.69,12.74-30.76l.67-10.59-1.56,11.56a6.37,6.37,0,0,1,.52-2.23l-4.38,10.39.62-.82-26,20,.93-.34-42.32-11.19.93,1.15-6.8-8.8c4.41,6.09,6.31,13.47,10.39,19.74,5.35,8.21,11.63,15.77,20.15,20.85,14.87,8.87,32.23,7.83,47.25.27,23.84-12,37.26-37.76,40.68-63.23C428,370.59,427,345.09,416,323.26c-8.9-17.64-27.92-31.24-48-31.34-10.09-.06-19.53,2.23-28.08,7.71-9,5.77-14.09,13.28-20.39,21.63l6.8-8.8a13.39,13.39,0,0,1-1.74,1.87l8.8-6.8A8.89,8.89,0,0,1,331,309l10.39-4.38a10.54,10.54,0,0,1-2.74.76l11.56-1.55a25,25,0,0,1-4.41,0l11.56,1.55a51,51,0,0,1-5.46-1.05l10.39,4.39-1-.42,8.8,6.8-.76-.68,11.19,19.2-.42-1.1,1.55,11.56.1-1.2-1.55,11.56.44-1.22-4.38,10.4c5.08-9.42,10.67-19.52,17.19-28l-6.8,8.8a32.81,32.81,0,0,1,4.6-4.37l-8.81,6.81c7.56-5.8,12.33-9.25,17.87-16.42,7.27-9.42,10.25-19.49,11.06-31.44.71-10.68-5.37-23.38-12.75-30.76-7.54-7.54-19.92-13.23-30.75-12.74-11.25.5-22.92,4.2-30.76,12.74-8.11,8.83-11.94,18.74-12.74,30.76Z"/><path class="cls-2" d="M319.83,441.51a44.88,44.88,0,0,0,30.75-12.74c7.55-7.55,13.23-19.93,12.75-30.76-1.06-23.57-19.12-43.5-43.5-43.5a44.86,44.86,0,0,0-30.76,12.74c-7.55,7.54-13.23,19.92-12.74,30.76,1.05,23.56,19.11,43.5,43.5,43.5Z"/><path class="cls-2" d="M322.21,448A44.88,44.88,0,0,0,353,435.23c7.54-7.54,13.22-19.92,12.74-30.76-1.06-23.56-19.11-43.5-43.5-43.5a44.89,44.89,0,0,0-30.76,12.75c-7.55,7.54-13.23,19.92-12.74,30.75,1.05,23.57,19.11,43.5,43.5,43.5Z"/><path class="cls-2" d="M317.78,445.25a44.86,44.86,0,0,0,30.76-12.74c7.55-7.54,13.23-19.92,12.74-30.76-1-23.57-19.11-43.5-43.5-43.5A44.88,44.88,0,0,0,287,371c-7.54,7.55-13.22,19.93-12.74,30.76,1.06,23.57,19.12,43.5,43.5,43.5Z"/><path class="cls-2" d="M328,466a44.93,44.93,0,0,0,30.76-12.74c7.54-7.55,13.22-19.93,12.74-30.76C370.44,399,352.38,379,328,379a44.86,44.86,0,0,0-30.76,12.74c-7.55,7.54-13.23,19.92-12.74,30.76,1.05,23.57,19.11,43.5,43.5,43.5Z"/><path class="cls-2" d="M311.72,414.14c-2.43,12.29-2.19,23.32,4.2,34.48A44.26,44.26,0,0,0,333,465.53a51.45,51.45,0,0,0,28,6.24c12.58-.74,26-5.24,34.64-15a52.82,52.82,0,0,1,7.16-7.26l-8.8,6.8,1.1-.78c9.44-6.68,16.82-14.5,20-26,2.87-10.41,1.57-24.27-4.39-33.51s-14.9-17.47-26-20c-10.85-2.46-24.08-2.3-33.52,4.39-4.6,3.25-9.46,6.64-13.46,10.66-1.56,1.56-2.82,3.37-4.36,4.94l8.8-6.8a6,6,0,0,1-1.94,1.19L350.62,386l-1.18.32L361,384.77a22.09,22.09,0,0,1-5-.12l11.56,1.56-1-.19,10.39,4.39L376,390l15.6,15.61-.55-.88,4.38,33.52.19-1c2.29-11.58,1.73-23.06-4.38-33.52-5.28-9-15.63-17.63-26-20-11.14-2.53-23.64-2-33.52,4.39-9.13,5.88-17.81,15-20,26Z"/><path class="cls-2" d="M374,463.84c3.37.33,6.55-.35,9.93-.81,3.61-.48,6.52-.68,9.79-1.91,4.39-1.66,9.14-3.3,13.11-5.92a121.56,121.56,0,0,0,11.84-9.38l-8.81,6.8a5.4,5.4,0,0,1,1.57-.92L401,456.09l.82-.14H378.72l.83.18c11.4,2.49,23.26,1.62,33.52-4.38,9-5.28,17.63-15.63,20-26,2.54-11.13,2-23.63-4.38-33.52-6-9.24-14.92-17.57-26-20-12.16-2.65-24.68-2-35.57,4.53a84.24,84.24,0,0,0-12.17,9.48l8.8-6.8a19.8,19.8,0,0,1-3.55,2.16l10.39-4.39a20,20,0,0,1-4,1.14l11.56-1.55a19.19,19.19,0,0,1-4.15,0,32.74,32.74,0,0,0-16.76,3.74,32.65,32.65,0,0,0-14,9c-7.55,7.54-13.23,19.92-12.74,30.76.5,11.25,4.19,22.91,12.74,30.76l8.8,6.8a43.39,43.39,0,0,0,22,5.94Z"/><path class="cls-2" d="M396.76,449.68a44.91,44.91,0,0,0,30.76-12.74c7.55-7.55,13.23-19.93,12.74-30.76-1.05-23.57-19.11-43.5-43.5-43.5A44.88,44.88,0,0,0,366,375.42c-7.54,7.54-13.22,19.92-12.74,30.76,1.06,23.57,19.12,43.5,43.5,43.5Z"/><path class="cls-2" d="M402.89,440.14a44.88,44.88,0,0,0,30.76-12.74c7.54-7.54,13.22-19.92,12.74-30.76-1.06-23.56-19.11-43.5-43.5-43.5a44.89,44.89,0,0,0-30.76,12.75c-7.54,7.54-13.23,19.92-12.74,30.75,1.06,23.57,19.11,43.5,43.5,43.5Z"/><path class="cls-2" d="M401.87,443.21a44.88,44.88,0,0,0,30.76-12.74c7.54-7.55,13.22-19.93,12.74-30.76-1.06-23.57-19.11-43.5-43.5-43.5A44.86,44.86,0,0,0,371.11,369c-7.55,7.54-13.23,19.92-12.74,30.76,1.05,23.57,19.11,43.5,43.5,43.5Z"/><path class="cls-2" d="M398.8,447a44.85,44.85,0,0,0,30.76-12.74c7.55-7.54,13.23-19.92,12.74-30.76-1.05-23.57-19.11-43.5-43.5-43.5a44.88,44.88,0,0,0-30.75,12.74c-7.55,7.55-13.23,19.93-12.75,30.76C356.36,427,374.42,447,398.8,447Z"/><path class="cls-2" d="M401.19,428.23A44.88,44.88,0,0,0,432,415.49c7.54-7.55,13.22-19.92,12.74-30.76-1.06-23.57-19.12-43.5-43.5-43.5A44.86,44.86,0,0,0,370.43,354c-7.55,7.55-13.23,19.92-12.74,30.76,1.05,23.57,19.11,43.5,43.5,43.5Z"/><path class="cls-2" d="M398.12,418a44.91,44.91,0,0,0,30.76-12.74c7.55-7.55,13.23-19.93,12.74-30.76C440.57,351,422.51,331,398.12,331a44.88,44.88,0,0,0-30.76,12.74c-7.54,7.54-13.22,19.92-12.74,30.76,1.06,23.57,19.12,43.5,43.5,43.5Z"/><path class="cls-2" d="M393.36,407.8a44.88,44.88,0,0,0,30.76-12.74c7.54-7.54,13.22-19.92,12.74-30.76-1.06-23.56-19.12-43.5-43.5-43.5a44.87,44.87,0,0,0-30.76,12.75c-7.55,7.54-13.23,19.92-12.74,30.75,1.05,23.57,19.11,43.5,43.5,43.5Z"/><path class="cls-2" d="M387.23,392.83A44.89,44.89,0,0,0,418,380.08c7.54-7.54,13.23-19.92,12.74-30.75-1.06-23.57-19.11-43.5-43.5-43.5a44.88,44.88,0,0,0-30.76,12.74c-7.54,7.54-13.23,19.92-12.74,30.76,1.06,23.56,19.11,43.5,43.5,43.5Z"/><path class="cls-2" d="M379.74,374.44A44.88,44.88,0,0,0,410.5,361.7c7.54-7.54,13.23-19.92,12.74-30.76-1.05-23.57-19.11-43.5-43.5-43.5A44.93,44.93,0,0,0,349,300.18c-7.54,7.55-13.22,19.93-12.74,30.76,1.06,23.57,19.11,43.5,43.5,43.5Z"/><path class="cls-2" d="M303.14,383.37c16.74,0,32.78-14.72,32-32s-14.06-32-32-32c-16.73,0-32.77,14.72-32,32s14.07,32,32,32Z"/><path class="cls-2" d="M294.29,369.58c12.56,0,24.58-11,24-24s-10.54-24-24-24c-12.55,0-24.58,11-24,24s10.55,24,24,24Z"/><path class="cls-2" d="M287.83,355.79c8.37,0,16.38-7.36,16-16s-7-16-16-16c-8.37,0-16.39,7.36-16,16s7,16,16,16Z"/><path class="cls-2" d="M288.17,354.77c8.37,0,16.38-7.36,16-16s-7-16-16-16c-8.37,0-16.39,7.36-16,16s7,16,16,16Z"/><path class="cls-2" d="M303.49,348c8.36,0,16.38-7.36,16-16s-7-16-16-16c-8.37,0-16.39,7.36-16,16s7,16,16,16Z"/><path class="cls-2" d="M299.74,351c8.37,0,16.39-7.36,16-16s-7-16-16-16c-8.37,0-16.39,7.36-16,16s7,16,16,16Z"/><path class="cls-2" d="M299.74,348.64c8.37,0,16.39-7.35,16-16s-7-16-16-16c-8.37,0-16.39,7.36-16,16s7,16,16,16Z"/><path class="cls-2" d="M299.71,348c5.77.31,11-2,15.29-5.85a23.05,23.05,0,0,0,4.3-5.51c.46-.85.89-1.72,1.29-2.59.86-1.37,1-1.67.28-.9s-.52.53.64-.69c-1.1.76-1.18.85-.23.26,1.34-.77,2.79-1.31,4.15-2.05a38.74,38.74,0,0,0,5.7-4.12c.57-.44,1.13-.9,1.68-1.39q-2.07,1.44.26-.05c7.13-4.38,10.5-14.52,5.74-21.9-4.61-7.15-14.26-10.42-21.89-5.74-2.82,1.74-5.13,4.17-7.85,6,2.7-1.83-1.71.47-1.89.56a26.28,26.28,0,0,0-3.31,1.87,34.56,34.56,0,0,0-8.19,7.81,27.71,27.71,0,0,0-2.72,4.18l-.63,1.3q-3.42,5.73,7.38-3.2c-8.37-.46-16.37,7.68-16,16,.41,9.05,7,15.51,16,16Z"/><path class="cls-2" d="M324.59,326.18c8.37,0,16.39-7.36,16-16s-7-16-16-16c-8.37,0-16.39,7.36-16,16s7,16,16,16Z"/><path class="cls-2" d="M323.91,325.16c8.37,0,16.39-7.36,16-16s-7-16-16-16c-8.37,0-16.39,7.35-16,16s7,16,16,16Z"/><path class="cls-2" d="M354.71,200a3.52,3.52,0,0,1-1.8-1.6c.85,1.64.95,1.68.29.14a27.51,27.51,0,0,1,1.28,4.29,54.47,54.47,0,0,1,1.62,11.71c.53,10.21-.54,19.25,4.19,28.79,3.73,7.51,15,10.2,21.9,5.74,7.69-5,9.72-13.86,5.74-21.9.77,1.58,0,.45,0-.54,0,1.76.14.65.17-.46.06-2.24.1-4.5.09-6.74a121.77,121.77,0,0,0-1.71-18.86c-1.81-11.61-6.12-21-15.66-28.2-6.71-5.06-18.17-1.3-21.89,5.74-4.45,8.41-1.42,16.49,5.74,21.89Z"/><path class="cls-2" d="M349.36,193.3c1.61,5.3,3.09,10.65,4.31,16,.26,1.17.58,2.35.75,3.54-.29-2,0,1.42,0,2,0,2.76.47-1.74-.09.83-.3,1.39-.7,2.75-1.08,4.12a275.47,275.47,0,0,0-6.55,33.34c-1.22,8.25,2.06,17.61,11.18,19.69,7.6,1.73,18.37-2.33,19.68-11.18,1.85-12.45,4.54-24.41,7.44-36.63,3.24-13.67-.81-27.2-4.78-40.27-2.43-8-11.31-13.89-19.68-11.18-8.08,2.61-13.78,11.11-11.18,19.68Z"/><path class="cls-2" d="M351.9,212.82l0,6.63c0,.91.46,4.48,0,4.89-.29.24,2.05-4.88.11-1.06a66.13,66.13,0,0,0-3.36,7.73c-2.82,7.89,3.18,17.86,11.18,19.68,9,2.05,16.66-2.72,19.68-11.17-1.18,3.29,1.09-2.07,1.37-2.66a29.72,29.72,0,0,0,2.91-11c.35-4.34.16-8.75.18-13.09.05-8.37-7.39-16.39-16-16s-15.95,7-16,16Z"/><path class="cls-2" d="M365.1,245.16c8.37,0,16.39-7.36,16-16s-7-16-16-16c-8.37,0-16.38,7.35-16,16s7,16,16,16Z"/><path class="cls-2" d="M359,260.13c8.37,0,16.39-7.36,16-16s-7-16-16-16c-8.36,0-16.38,7.36-16,16s7,16,16,16Z"/><path class="cls-2" d="M353.19,270.69c8.37,0,16.38-7.36,16-16s-7-16-16-16c-8.37,0-16.39,7.36-16,16s7,16,16,16Z"/><path class="cls-2" d="M350.12,284c8.37,0,16.39-7.36,16-16s-7-16-16-16c-8.37,0-16.38,7.36-16,16s7,16,16,16Z"/><path class="cls-2" d="M349.1,285c8.37,0,16.39-7.36,16-16s-7-16-16-16c-8.37,0-16.38,7.35-16,16s7,16,16,16Z"/><path class="cls-2" d="M349.44,281.92c8.37,0,16.39-7.36,16-16s-7-16-16-16c-8.37,0-16.38,7.36-16,16s7,16,16,16Z"/><path class="cls-2" d="M343.66,294.18c8.36,0,16.38-7.36,16-16s-7-16-16-16c-8.37,0-16.39,7.36-16,16s7,16,16,16Z"/><path class="cls-2" d="M338.89,304.05c8.37,0,16.39-7.36,16-16s-7-16-16-16c-8.37,0-16.39,7.36-16,16s7,16,16,16Z"/><path class="cls-2" d="M334.8,311.2c8.37,0,16.39-7.36,16-16s-7-16-16-16c-8.36,0-16.38,7.36-16,16s7,16,16,16Z"/><path class="cls-2" d="M368.7,230.7a118,118,0,0,1,2.95,20.48c.23,3.75.37,7.53.26,11.29,0,.4-.36,4.43-.11,2.91.28-1.72-2,4.49-.64,1.89-4,7.36-2.07,17.77,5.74,21.89,7.46,3.94,17.64,2.12,21.89-5.74,5.11-9.44,5.47-19.83,5-30.32a186,186,0,0,0-4.2-30.91C397.75,214,387.8,208.45,379.87,211c-8.6,2.79-13.1,10.92-11.17,19.69Z"/><path class="cls-2" d="M373.18,233.2a66.1,66.1,0,0,1,3,9.91l.31,1.7c-.11-1.12-.1-1.11,0,0,.17,1.44.28,2.89.37,4.34.45,6.74.3,13.51.54,20.26a115.85,115.85,0,0,0,10.24,43.77c3.42,7.67,15.18,10.07,21.89,5.74,7.94-5.12,9.4-13.68,5.74-21.89.64,1.44-1.15-2.95-1.12-2.88-.52-1.41-1-2.85-1.43-4.29-1-3.18-1.67-6.4-2.36-9.66a41.69,41.69,0,0,1-.74-6.4c-.22-3.22-.29-6.45-.35-9.69-.22-13.23-.21-27-5.25-39.44-3.13-7.73-10.8-14-19.68-11.18-7.47,2.42-14.54,11.38-11.17,19.68Z"/><path class="cls-2" d="M418.89,316v-7.83a16.51,16.51,0,0,0-4.69-11.31,16.3,16.3,0,0,0-11.31-4.69c-4.14.19-8.43,1.55-11.31,4.69a16.6,16.6,0,0,0-4.69,11.31V316a16.47,16.47,0,0,0,4.69,11.32A16.24,16.24,0,0,0,402.89,332c4.14-.18,8.43-1.54,11.31-4.68A16.61,16.61,0,0,0,418.89,316Z"/><path class="cls-2" d="M365.81,176.64c5.1,17.93,9.56,33.27,7.83,51.49-.79,8.36,7.93,16.36,16,16,9.35-.42,15.15-7,16-16,1.94-20.37-3.44-40.57-9-60-2.29-8-11.4-13.86-19.68-11.18S363.35,168,365.81,176.64Z"/><path class="cls-2" d="M361.48,150.63a32.87,32.87,0,0,0,3.09,8.35c.82,1.6,1.91,3,2.68,4.65l-1.61-3.82a5.38,5.38,0,0,1,.39,1.37l-.57-4.26,0,.7.57-4.25-.11.71c-.66,4.42-.74,8.31,1.61,12.33a16.36,16.36,0,0,0,9.57,7.35c4.09.93,8.69.73,12.32-1.61,3.26-2.11,6.76-5.55,7.36-9.57.55-3.7,1-6.22.07-9.91a26.69,26.69,0,0,0-2.17-5.53c-.88-1.72-2-3.27-2.85-5l1.61,3.82a20,20,0,0,1-1.14-3.8c-.74-3.77-4.13-7.68-7.35-9.56A16.35,16.35,0,0,0,372.66,131c-8.75,2.83-12.92,10.87-11.18,19.68Z"/><path class="cls-2" d="M363.18,149.34a49.64,49.64,0,0,0,5.13,13.55c3.78,7,12.93,9.52,20,6.55,7.67-3.24,10.79-10.93,9.26-18.88-.8-4.18-2.12-8.51-4.73-11.92-5.07-6.63-14-10.83-21.89-5.74-7.11,4.58-10.49,14.29-5.74,21.89,1.54,2.46,3,5,4.3,7.56.52,1,1,2.08,1.49,3.14-.78-1.77.49,1.3.68,1.82q1.38,3.76,2.39,7.65c.4,1.54.75,3.1,1.07,4.67.06.33.68,3.58.5,2.36.85,5.69.43,11.41.78,17.12A77.87,77.87,0,0,0,378,210.48c.24,1.13.51,2.26.72,3.39-.2-1.06.64-3.44-.33-.29l31.43,4.25a157.8,157.8,0,0,1-.74-24l-31.43,4.26a77.77,77.77,0,0,1,1.15,13.71c0,2.54,0,5.08-.21,7.61a60.15,60.15,0,0,1-.63,6.14c-1.3,8.23,2.11,17.61,11.18,19.68,7.67,1.75,18.28-2.34,19.68-11.18a132,132,0,0,0-.31-44.47c-1.38-7.82-10.36-12.43-17.56-11.46-8,1.08-13.51,7.67-13.87,15.71a157.8,157.8,0,0,0,.74,24c.86,8,5.44,14.58,13.87,15.72a16.06,16.06,0,0,0,17.56-11.46,29.72,29.72,0,0,0,.88-12.92c-.24-1.85-.52-3.67-.89-5.5,0,.13-1.06-4.81-.74-2.68-1.05-6.84-.27-14-1.18-20.9a102.57,102.57,0,0,0-14.54-41.45l-27.63,16.15c1.72,2.24.19-.94.69.67a33.71,33.71,0,0,1,.82,3.61l29.24-12.33-.82-1.53c.34.92.33.86,0-.18a33.41,33.41,0,0,1-1.07-4.19c-1.67-8.22-11.84-13.71-19.68-11.18-8.71,2.82-13,10.88-11.17,19.68Z"/><path class="cls-2" d="M379.58,216.92c-.28,2.61-.48,5.27-.92,7.86l.21-1.64c-.12.87-.24,1.74-.37,2.61-.2,1.31-.41,2.61-.62,3.91-.7,4.38-.71,8.35,1.62,12.33a16.3,16.3,0,0,0,9.56,7.35c7.69,1.75,18.26-2.34,19.68-11.17q1.71-10.59,2.84-21.25c.88-8.35-8-16.36-16-16-9.43.42-15.05,7.05-16,16Z"/><path class="cls-2" d="M399.49,310.86c8.36,0,16.38-7.36,16-16s-7-16-16-16c-8.37,0-16.39,7.36-16,16s7,16,16,16Z"/><path class="cls-2" d="M400.17,314.26c8.37,0,16.38-7.36,16-16s-7-16-16-16c-8.37,0-16.39,7.36-16,16s7,16,16,16Z"/><path class="cls-2" d="M401.53,318.35c8.37,0,16.38-7.36,16-16s-7-16-16-16c-8.37,0-16.39,7.36-16,16s7,16,16,16Z"/><path class="cls-2" d="M398.8,301.67c8.37,0,16.39-7.36,16-16s-7-16-16-16c-8.36,0-16.38,7.36-16,16s7,16,16,16Z"/><path class="cls-2" d="M399.49,308.13c8.36,0,16.38-7.36,16-16s-7-16-16-16c-8.37,0-16.39,7.36-16,16s7,16,16,16Z"/><path class="cls-2" d="M398.12,292.81c8.37,0,16.39-7.35,16-16s-7-16-16-16c-8.37,0-16.38,7.36-16,16s7,16,16,16Z"/><path class="cls-2" d="M398.8,286c8.37,0,16.39-7.36,16-16s-7-16-16-16c-8.36,0-16.38,7.36-16,16s7,16,16,16Z"/><path class="cls-2" d="M399.14,275.11c8.37,0,16.39-7.36,16-16s-7-16-16-16c-8.36,0-16.38,7.36-16,16s7,16,16,16Z"/><path class="cls-2" d="M396.76,263.2c8.37,0,16.39-7.36,16-16s-7-16-16-16c-8.37,0-16.39,7.36-16,16s7,16,16,16Z"/><path class="cls-2" d="M396.08,253.67c8.37,0,16.39-7.36,16-16s-7-16-16-16c-8.37,0-16.39,7.36-16,16s7,16,16,16Z"/><path class="cls-2" d="M396.76,250.26c8.37,0,16.39-7.36,16-16s-7-16-16-16c-8.37,0-16.39,7.36-16,16s7,16,16,16Z"/><path class="cls-2" d="M396.08,243.11c8.37,0,16.39-7.36,16-16s-7-16-16-16c-8.37,0-16.39,7.36-16,16s7,16,16,16Z"/><path class="cls-2" d="M289.69,447.46c-.62-2.77.07,2.72.34,0,0,.3-1.36,4.78-.18,1.73a47.79,47.79,0,0,1-4,7.14c-3.35,5.53-6.66,11.4-7.7,17.86-1.34,8.23,2.13,17.62,11.17,19.68,7.7,1.76,18.25-2.34,19.69-11.17.11-.72,1.76-6.1.48-3.11a38.41,38.41,0,0,1,2.07-3.91c1.61-2.8,3.41-5.48,4.9-8.35,4.72-9.12,6.27-18.23,4-28.32-1.81-8.19-11.75-13.75-19.68-11.18a16.36,16.36,0,0,0-11.17,19.68Z"/><path class="cls-2" d="M294.16,470.36c.23-1.63.21-1.44-.05.54-1.1,8.93,8.25,15.55,16,16a40,40,0,0,0,31.65-13.12l-25.13-19.39a44.34,44.34,0,0,1-4.8,7.76c-5.94,7.68.12,22,9.56,23.5,13.06,2.06,27.1-2.55,33.07-15.33l-29.24-3.82c2.25,10.73,12.65,18.2,23.33,18.49,10.25.27,17.71-5.14,25.9-10.34,7.05-4.49,10.54-14.44,5.74-21.89-4.56-7.06-14.34-10.55-21.89-5.74-3.1,2-6.61,3.92-9.49,6.14-1.21.93.05,0,1.23,0,2,0,5.56,2.59,6,4.87-2.71-12.9-23.46-16.2-29.25-3.82-.09.21-1.26,2.27-1.23,2.31-.46-.62,3.43-2.87,1.43-1.77s2.42-.83.2-.1c-1.25.42,1.92.06,2.67.18l9.56,23.51a44,44,0,0,0,4.8-7.76c3.52-7.25,2.49-15.54-4.12-20.64-6-4.61-15.69-4.73-21,1.25-.16.18-3.51,3.33-1.24,1.62-.19.14-4.3,2.42-1.56,1.23a16.92,16.92,0,0,1-4.4,1.21c2.83-.38-1-.26-1.83-.31l16,16a19.94,19.94,0,0,0-1.09-9c-2.78-7.87-11-14-19.68-11.18-7.77,2.52-14.16,11.24-11.18,19.69Z"/><path class="cls-2" d="M259.62,499.92c5.95-1.45,9.7-1.57,13.82-6.56,3.81-4.62,9-9.39,10.61-15.29,1.13-4.1-3.76-6.34-6.69-3.89a61.33,61.33,0,0,0-13.93,16.66c-1.62,2.82,1.12,7.12,4.52,5.87a34.82,34.82,0,0,0,11.4-6.78l-6.28-4.85a26.79,26.79,0,0,1-3,4.78c-1.92,2.42-1.26,5.6,1.77,6.68,7.28,2.61,16.43-2.39,13.72-11a4,4,0,0,0-7.86,1.06c-.29,5.53,3.22,10.52,8.84,11.37a10.69,10.69,0,0,0,6.95-1.31c2.77-1.63,3.75-5.15,6.47-6.59,4.56-2.41.52-9.31-4-6.91a13.16,13.16,0,0,0-4.36,4c-.6.79-1.23,2.15-2.12,2.62-2.46,1.32-3.86-1.18-3.75-3.15l-7.86,1.07c.8,2.53-2.88,1.49-3.88,1.13l1.77,6.68a37.73,37.73,0,0,0,4.21-6.39,4,4,0,0,0-6.29-4.85,24,24,0,0,1-7.87,4.73l4.52,5.88A54.91,54.91,0,0,1,283,479.83l-6.69-3.89c-1.2,4.35-5.72,8.33-8.55,11.76-1.38,1.68-2.26,2.8-4.4,3.51-1.81.6-4,.54-5.89,1-5,1.23-2.88,8.94,2.13,7.71Z"/><path class="cls-2" d="M374.64,473.42c5.95.39,10.15-2.38,15.36-4.56-1.13.5-.84.44.87-.19s3.31-1.31,4.94-2,3.13-2,4.72-3c9.11-5.88,18.1-9.77,21.25-21.25,5-18-23-25.72-28-7.71.36-1.31,2.35-1.84.1-.46,1.79-1.09-.87.4-1.49.75-2.59,1.46-5.21,2.76-7.69,4.43-.26.17-3.08,2.08-2,1.46s-2.26.78-2.63.92a55,55,0,0,0-6.1,2.77c-2.32,1.21-.53-.16.59-.09-7.82-.51-14.5,7-14.5,14.5,0,8.28,6.66,14,14.5,14.5Z"/><path class="cls-2" d="M63,468.38c-6.77,14.5-.86,29.46,14.34,34.87v-28l-1.14.16h7.71q7.52,6.65,3.77,2.2c-.61-.83-1.26-1.64-1.93-2.43a16.41,16.41,0,0,0-4.92-3.55c-9.16-4.22-17.65-.62-21.3,8.66a21.53,21.53,0,0,0-1.35,9.7c.72,7.8,6.15,14.5,14.5,14.5s13.75-6.67,14.5-14.5c-1.18,3.52-1.28,4.48-.32,2.89q2.52-3.56-4.88,3.49H74.28q-5.77-4.11-1.87-1l3,2.53a78.08,78.08,0,0,0,6.21,4.82c4.6,3,10.32,4.93,15.85,4.29,7.78-.89,14.5-6,14.5-14.5,0-7.14-6.66-15.4-14.5-14.5q-3.74.1.9.95-2.14-1.54-1.17-.51a51.06,51.06,0,0,1-4.32-3.59c-4.47-3.68-8.64-7-14.79-7-11.77,0-18.95,11.7-19.94,22.1h29c-.29-3.15-.84,1,.31-2l-21.3,8.67a6.85,6.85,0,0,1-1.31-1.48q-1.62-2.24,1.92,2.44a18.64,18.64,0,0,0,4.31,3.55c4.63,2.69,8.69,2.76,13.94,2,6.19-.86,10.65-8.22,10.65-14,0-6.69-4.59-11.83-10.65-14,3.47,1.23,4.44,4.61,3,7.73,3.31-7.1,2-15.64-5.2-19.84-6.28-3.68-16.51-1.93-19.84,5.2Z"/><path class="cls-2" d="M137.37,481.76a27.7,27.7,0,0,0,15,18.23c3.69,1.67,8.07,1.06,10.26-2.69,1.88-3.22,1-8.59-2.69-10.26a13.55,13.55,0,0,1-5.6-4,9.58,9.58,0,0,1-1.37-2.13c-.13-.24-.77-1.63-.42-.78a18.77,18.77,0,0,1-.7-2.32,7.51,7.51,0,1,0-14.47,4Z"/><path d="M126.2,184.87a135.49,135.49,0,0,0,3.66,78,122.81,122.81,0,0,0,18.64,34.27A105.46,105.46,0,0,0,177.42,323a110.87,110.87,0,0,0,73.73,14.23A94.08,94.08,0,0,0,286.55,324c11.83-7.48,21.63-17.75,29.76-29.06,8.46-11.78,15.16-24.73,21.26-37.85,6.64-14.26,13.67-29,15.62-44.77a60.07,60.07,0,0,0,.29-11.84c-.15-1.91-3.15-1.93-3,0,1.25,16.1-4.89,31.46-11.31,45.88-5.78,13-11.87,25.87-19.38,37.95-7.33,11.82-16.12,22.84-27,31.58a88.56,88.56,0,0,1-33.17,16.46,103.56,103.56,0,0,1-37,2.57,108.14,108.14,0,0,1-35.75-10.25,102,102,0,0,1-30-22.32,115.57,115.57,0,0,1-20.81-32,129.21,129.21,0,0,1-10-37A132.79,132.79,0,0,1,127.1,195c.55-3.12,1.22-6.21,2-9.28.48-1.87-2.41-2.67-2.89-.8Z"/><path d="M194.43,102.06a282,282,0,0,0,43.86,47.59A285.43,285.43,0,0,0,291.61,186a281,281,0,0,0,33.27,14.84c1.81.67,2.6-2.23.8-2.89a279,279,0,0,1-56.82-28.9,282.13,282.13,0,0,1-48.87-41,274.73,274.73,0,0,1-23-27.54c-1.13-1.54-3.73,0-2.59,1.51Z"/><path d="M194.85,102.24a115.91,115.91,0,0,0,22.48,25.91c9.14,7.8,19.29,14.43,29.41,20.88a489.07,489.07,0,0,0,63,33.89c6.08,2.72,12.21,5.43,18.47,7.73s12.88,4,19.64,4a1.5,1.5,0,0,0,0-3c-11.74.06-22.9-5.31-33.43-9.93q-16.06-7-31.61-15.24T252.35,149a314.9,314.9,0,0,1-29.27-20,115.36,115.36,0,0,1-25.64-28.29c-1-1.63-3.63-.12-2.59,1.51Z"/><path d="M191.8,101c-.37,7.31-3.53,14-7,20.34a207,207,0,0,1-11.31,18.36c-7.87,11.29-17.38,21.63-29.14,28.94a67.5,67.5,0,0,1-20.48,8.58c-1.88.43-1.08,3.32.8,2.89,13.49-3.09,25.59-10.58,35.54-20.06,10.75-10.24,19.06-22.77,26.31-35.64,4.1-7.26,7.86-14.94,8.29-23.41.09-1.93-2.91-1.92-3,0Z"/><path d="M320,157.25a38.2,38.2,0,0,0,20,22.65c1.74.8,3.26-1.78,1.51-2.59a35.25,35.25,0,0,1-18.63-20.86c-.59-1.83-3.49-1-2.89.8Z"/><path d="M184,15.11c-32.38,12.21-60.31,34.15-81.2,61.61a198.56,198.56,0,0,0-39,94.87A175.17,175.17,0,0,0,64.81,223c3.59,20.82,11.37,43.45,4,64.32C65.3,297.38,58,305.26,50.61,312.63c-6.67,6.61-13.25,13.16-19,20.61A152,152,0,0,0,7.14,381c-10.51,34.13-9.63,72.11,4.07,105.24q2.49,6,5.51,11.8c.9,1.71,3.49.19,2.59-1.52C2.64,464.66-1,426.85,7.27,392a152.34,152.34,0,0,1,21-49,140.42,140.42,0,0,1,16.87-20.79c6.85-7,14.25-13.51,19.95-21.51,12.42-17.43,10.35-38.57,6.5-58.47-1.91-9.87-4.19-19.68-5.29-29.68a171.89,171.89,0,0,1-.9-25.56c1.33-34.4,12.78-68.13,31.53-96.9,18.62-28.57,44.73-52.44,75.68-67,4-1.87,8-3.56,12.1-5.11,1.78-.68,1-3.58-.8-2.89Z"/><path d="M190.53,15.09c20.83-5.7,42.14-11.52,63.93-10.82,18.86.62,36.94,6.88,52.91,16.77,32.81,20.33,54.13,53.69,71.27,87.38,9.36,18.42,18,37.33,23.88,57.19,5.76,19.61,7.83,39.79,8.66,60.14.81,19.77.7,39.59,2.73,59.29a197.69,197.69,0,0,0,5,29.19,161.3,161.3,0,0,0,9.86,26.92c7.86,17.05,17,34.08,16.18,53.43a68.87,68.87,0,0,1-19.3,44.62,63.93,63.93,0,0,1-9.47,8c-1.58,1.08-.09,3.69,1.51,2.59a70.89,70.89,0,0,0,27.9-39.91,68.35,68.35,0,0,0,2.07-24.77c-1-9.42-4.07-18.39-7.8-27-4-9.31-8.77-18.28-12.54-27.7a150.48,150.48,0,0,1-8.2-29.24c-3.65-20.33-3.93-41.07-4.5-61.66s-1.38-41-5.75-61.06c-4.45-20.44-12.38-39.95-21.39-58.77-16.76-35-36.84-70.42-68.42-94.17C304.38,14.38,287.33,6,269.14,2.8,247.86-1,226.31,2.75,205.62,8c-5.32,1.34-10.6,2.78-15.89,4.23a1.5,1.5,0,0,0,.8,2.89Z"/><path d="M188.79,223.17c16.09,0,16.11-25,0-25s-16.11,25,0,25Z"/><path d="M273.72,224.36c16.08,0,16.11-25,0-25s-16.12,25,0,25Z"/><path d="M200.54,209.53c.76-8.16-6.37-14.28-13.6-16.24a48.38,48.38,0,0,0-13.47-1.22,38.7,38.7,0,0,0-13.57,2.32,79.23,79.23,0,0,0-13.37,7.17c-1.09.68-.09,2.41,1,1.72,7.18-4.47,14.39-8.64,23-9.12,7.68-.42,17.13-.54,23.28,4.84,3,2.66,5.08,6.4,4.69,10.53-.12,1.28,1.88,1.27,2,0Z"/><path d="M162.17,192.73c-5.44,2.52-12.65-.91-14.26-6.63a1,1,0,0,0-1.93.53c2,7.05,10.6,10.89,17.2,7.83,1.17-.54.15-2.26-1-1.73Z"/><path d="M175,190.74a14,14,0,0,1-8.74-8.2,1,1,0,0,0-1.23-.7,1,1,0,0,0-.69,1.23,16.17,16.17,0,0,0,10.13,9.6c1.23.39,1.76-1.54.53-1.93Z"/><path d="M195.79,201.68a17.35,17.35,0,0,0,11.31-.52,1,1,0,0,0,.7-1.23,1,1,0,0,0-1.23-.7,15.55,15.55,0,0,1-10.25.52,1,1,0,0,0-.53,1.93Z"/><path d="M198.81,202.8c-1-6.71-6.86-11.57-13.07-13.47-8.4-2.58-17.72-1-26.31-.41-1.27.09-1.28,2.09,0,2,4.17-.3,8.33-.66,12.5-.85a41.23,41.23,0,0,1,11.94.82c6.12,1.51,12,5.86,13,12.44.19,1.27,2.12.73,1.93-.53Z"/><path d="M195,155.4a62,62,0,0,0-36.49-5.15c-1.26.2-.73,2.13.54,1.92a59.64,59.64,0,0,1,34.94,5c1.16.55,2.18-1.17,1-1.73Z"/><path d="M263.42,209.32c.33-7.89,8.52-12.08,15.49-12.57a54.17,54.17,0,0,1,12.83,1,34.66,34.66,0,0,1,11.74,4.06A81.57,81.57,0,0,1,314.7,210c1,.82,2.41-.59,1.42-1.41a92.78,92.78,0,0,0-10.71-8,36.1,36.1,0,0,0-12.69-4.73c-8.36-1.47-18.25-2.63-25.44,2.91a14.22,14.22,0,0,0-5.86,10.54c-.05,1.29,1.95,1.29,2,0Z"/><path d="M300.59,199.35c6,3.83,15.07,1.15,17.93-5.42.5-1.17-1.22-2.19-1.73-1-2.43,5.6-10,8-15.19,4.7-1.09-.69-2.09,1-1,1.73Z"/><path d="M289.64,196a16.08,16.08,0,0,0,11.15-8c.62-1.13-1.11-2.14-1.73-1a14.15,14.15,0,0,1-9.95,7.09,1,1,0,1,0,.53,1.93Z"/><path d="M266.8,200.09a15.28,15.28,0,0,1-9.84-1.86,1,1,0,0,0-1,1.73A17.5,17.5,0,0,0,267.33,202a1,1,0,0,0,.7-1.23,1,1,0,0,0-1.23-.7Z"/><path d="M265.94,203.42c1.81-6.27,8.28-9.79,14.42-10.46a41.48,41.48,0,0,1,12,.78c4.07.75,8.11,1.66,12.16,2.5,1.25.27,1.79-1.66.53-1.93-8.53-1.78-17.61-4.56-26.39-3.13-6.44,1.06-12.79,5.19-14.67,11.7a1,1,0,0,0,1.93.54Z"/><path class="cls-3" d="M270.45,158.26a60.37,60.37,0,0,1,36-2.92"/><path d="M228.45,204.05a27.5,27.5,0,0,1,4.3,10.31c.71,3.72.85,7.65-2.3,10.28a36.38,36.38,0,0,1-9.67,5.29,50.59,50.59,0,0,1-10.95,3,1,1,0,0,0-.44,1.68l8.55,7c1,.81,2.41-.6,1.41-1.41l-8.54-7-.44,1.67a51.87,51.87,0,0,0,12-3.42c3.55-1.51,7.67-3.35,10.37-6.2s2.68-7,2.06-10.76A29.14,29.14,0,0,0,230.18,203c-.72-1.06-2.45-.06-1.73,1Z"/><path d="M280.24,204.56a1,1,0,0,0,0-2,1,1,0,0,0,0,2Z"/><path class="cls-4" d="M280.83,206.34a1,1,0,0,0,0-2,1,1,0,0,0,0,2Z"/><path class="cls-4" d="M197.27,205.75a1,1,0,0,0,0-2,1,1,0,0,0,0,2Z"/><path class="cls-5" d="M160.53,262c10.72,0,21-9.43,20.5-20.5s-9-20.5-20.5-20.5c-10.72,0-21,9.43-20.5,20.5s9,20.5,20.5,20.5Z"/><path class="cls-5" d="M296.24,265c10.72,0,21-9.43,20.5-20.5s-9-20.5-20.5-20.5c-10.73,0-21,9.43-20.5,20.5s9,20.5,20.5,20.5Z"/><path class="cls-5" d="M217.87,290.17c9.65,0,9.66-15,0-15s-9.67,15,0,15Z"/><path class="cls-5" d="M226.46,280.43a10.74,10.74,0,0,0-3.42.64,4.35,4.35,0,0,0-2.39,1.84,4,4,0,0,0,1.43,5.47,3.93,3.93,0,0,0,3.08.41,7.65,7.65,0,0,1,1.67-.45l-1.06.15q.34,0,.69-.06a4.22,4.22,0,0,0,2.83-1.17,4,4,0,0,0,0-5.66,4,4,0,0,0-2.83-1.17Z"/><path class="cls-5" d="M228.38,287.26c5.15,0,5.16-8,0-8s-5.15,8,0,8Z"/><path class="cls-5" d="M227.2,286.23c5.15,0,5.15-8,0-8s-5.16,8,0,8Z"/><path class="cls-5" d="M228.38,285.49c5.15,0,5.16-8,0-8s-5.15,8,0,8Z"/><path class="cls-5" d="M228.68,284.15c5.15,0,5.16-8,0-8s-5.16,8,0,8Z"/><path class="cls-5" d="M228.83,283.41c5.15,0,5.15-8,0-8s-5.16,8,0,8Z"/><path class="cls-5" d="M214.61,291.41c5.14,0,5.15-8,0-8s-5.16,8,0,8Z"/><path class="cls-5" d="M210,293.26c2.58,0,2.58-4,0-4s-2.57,4,0,4Z"/><path class="cls-5" d="M214.75,300.62c7.08,0,7.09-11,0-11s-7.09,11,0,11Z"/><path class="cls-5" d="M214.75,300.32c7.08,0,7.09-11,0-11s-7.09,11,0,11Z"/><path class="cls-5" d="M216.38,304c7.08,0,7.09-11,0-11s-7.09,11,0,11Z"/><path class="cls-5" d="M217.57,306.39c7.08,0,7.09-11,0-11s-7.09,11,0,11Z"/><path class="cls-5" d="M218.46,308c7.08,0,7.09-11,0-11s-7.09,11,0,11Z"/><path class="cls-5" d="M213.69,306.64a7.9,7.9,0,0,0,2.62,2.74,8.77,8.77,0,0,0,1.76.81,5.39,5.39,0,0,0,1.34.26,5,5,0,0,0,2.56-.11,5.79,5.79,0,0,0,2.46-1.42,5.86,5.86,0,0,0,1.18-1.83,2.71,2.71,0,0,0,.38-1.39,4.18,4.18,0,0,0-.1-2.19,4.4,4.4,0,0,0-1-1.92,4.13,4.13,0,0,0-1.59-1.44,5.49,5.49,0,0,0-2.82-.75l-1.46.2a4.07,4.07,0,0,0-1.87,1,2.76,2.76,0,0,0-1,1,4.16,4.16,0,0,0-1,1.87v0a4.12,4.12,0,0,0-.1,2.2,4.06,4.06,0,0,0,.65,2,5.51,5.51,0,0,0,7.53,2l1.11-.86a5.53,5.53,0,0,0,1.41-2.43l0,0-5.31,4h.05l-2.78-.76.05,0-2.53-3.29v.05l.56-4.24,0,.06,3.28-2.53-.07,0,1.46-.19a1.82,1.82,0,0,1-.33,0l1.46.2a2.64,2.64,0,0,1-.61-.17l1.32.56a3.18,3.18,0,0,1-.44-.26l1.11.86a2.34,2.34,0,0,1-.45-.44l.86,1.11a2.14,2.14,0,0,1-.2-.32,5.67,5.67,0,0,0-3.29-2.53,5.61,5.61,0,0,0-4.24.56,5.53,5.53,0,0,0-2.52,3.28,5.91,5.91,0,0,0,.55,4.24Z"/><path class="cls-5" d="M217.42,311.24c4.13.62,9.23.15,12.57-2.64,3-2.53,3.72-5.61,4.34-9.34.49-2.92-.77-5.92-3.84-6.76-2.64-.73-6.28.89-6.77,3.84-.17,1-.33,2-.51,3,0,.08-.21,1.3-.08.72s-.42.34,0-.05c-1,1,.39-.26.46-.13,0,0-1.18.31-1.28.33a8.7,8.7,0,0,1-1.93.38c-2.93-.44-5.91.74-6.76,3.84-.72,2.6.89,6.32,3.84,6.77Z"/><path class="cls-5" d="M228.83,300.76c7.08,0,7.09-11,0-11s-7.09,11,0,11Z"/><path class="cls-5" d="M229,301.36c7.07,0,7.09-11,0-11s-7.09,11,0,11Z"/><path class="cls-5" d="M229,302c7.07,0,7.09-11,0-11s-7.09,11,0,11Z"/><path class="cls-5" d="M229.42,301.65c7.08,0,7.09-11,0-11s-7.09,11,0,11Z"/><path class="cls-5" d="M223.35,299.58c7.07,0,7.09-11,0-11s-7.09,11,0,11Z"/><path class="cls-5" d="M222.46,301.5c7.08,0,7.09-11,0-11s-7.09,11,0,11Z"/><path class="cls-5" d="M222.46,298.1c7.08,0,7.09-11,0-11s-7.09,11,0,11Z"/><path class="cls-5" d="M222,297.8c7.08,0,7.09-11,0-11s-7.09,11,0,11Z"/><path class="cls-5" d="M225.12,296.47c7.08,0,7.09-11,0-11s-7.09,11,0,11Z"/><path class="cls-5" d="M226.61,295.13c7.07,0,7.09-11,0-11s-7.09,11,0,11Z"/><path class="cls-5" d="M227.2,295.13h.15a6.07,6.07,0,0,0,3.89-1.61,6.22,6.22,0,0,0,1.61-3.89l-.2-1.46a5.44,5.44,0,0,0-1.41-2.42l-1.12-.86a5.52,5.52,0,0,0-2.77-.76h-.15a4.16,4.16,0,0,0-2.12.48,4.1,4.1,0,0,0-1.77,1.14,4,4,0,0,0-1.14,1.77,4.14,4.14,0,0,0-.47,2.11l.2,1.47a5.44,5.44,0,0,0,1.41,2.42l1.11.86a5.45,5.45,0,0,0,2.78.75Z"/><path class="cls-5" d="M227.94,296.62c7.08,0,7.09-11,0-11s-7.09,11,0,11Z"/><path class="cls-5" d="M228.38,297.8c7.08,0,7.09-11,0-11s-7.09,11,0,11Z"/><path class="cls-5" d="M228.53,298.39c7.08,0,7.09-11,0-11s-7.09,11,0,11Z"/><path class="cls-5" d="M227.2,302.73c10.94,0,11-17,0-17s-11,17,0,17Z"/><path d="M212.08,285c-.93-3.22,0-7.5,3.24-9.06,2.8-1.33,7.06.47,7.22,3.78a1,1,0,0,0,.73,1c2.64.49,3.66-2.19,4.91-3.95.24-.34.57-.87,1-1,.89-.24,1.46,1.23,1.74,1.85.86,1.91,1.55,4.63.89,6.7s-4,2.62-5.85,3.08a63.17,63.17,0,0,1-7.1,1.26c-3.31.44-8.24,1.22-10.48-2-.51-.71-2-.58-1.87.51A63.25,63.25,0,0,0,209.07,299a46.3,46.3,0,0,0,4.71,10.79c2,3.14,5.66,3.67,9.13,3.27a15,15,0,0,0,9.17-4.36,12.33,12.33,0,0,0,3.24-10.57c-.22-1.26-2.15-.73-1.93.53A10.45,10.45,0,0,1,228.75,309c-2.95,2-7.58,3.12-11,1.77-2-.79-2.87-2.94-3.75-4.76a58.55,58.55,0,0,1-2.49-6,60.09,60.09,0,0,1-3-12.81l-1.86.5c2,2.83,5.39,3.45,8.65,3.32A51.77,51.77,0,0,0,228,288.88c1.69-.51,3.81-1.1,5-2.54s1.12-3.59.9-5.35c-.3-2.43-1.79-8.39-5.4-7.1a5.46,5.46,0,0,0-2.47,2.53c-.4.65-1.22,2.53-2.21,2.35l.74,1c-.22-4.47-5.35-7.3-9.43-5.85-4.6,1.64-6.22,7.32-5,11.66a1,1,0,0,0,1.93-.53Z"/><path d="M202.21,333.13A39.3,39.3,0,0,1,177.65,379c-1.2.45-.68,2.38.53,1.93a41.36,41.36,0,0,0,26-48.28c-.29-1.25-2.22-.72-1.93.53Z"/><path d="M272.63,329.91c-3,16.62-9.65,33.68-4.75,50.61a33.61,33.61,0,0,0,5.72,11.34c.79,1,2.19-.41,1.41-1.41-10.08-13-7-30.74-3.6-45.5,1.12-4.82,2.28-9.63,3.15-14.5.22-1.26-1.71-1.8-1.93-.54Z"/><path d="M173.4,369.1c3.08,3.09,4,7.45,3.74,11.7-.36,4.85-2.61,9.29-5.16,13.35-2.75,4.35-5.87,8.45-8.57,12.84a126.11,126.11,0,0,0-7.53,14.27c-4.33,9.7-7.71,20-9,30.58-1.17,9.88-.14,20.28,4.83,29.05,4.68,8.27,12.69,15,22.29,16.4a1.56,1.56,0,0,0,1.85-1.05,1.51,1.51,0,0,0-1-1.84c-8.38-1.2-15.37-6.68-19.76-13.77-5.28-8.52-6.32-18.77-5.18-28.56,1.21-10.52,4.73-20.93,9.14-30.52a124.85,124.85,0,0,1,7.44-13.81c2.72-4.36,5.87-8.44,8.56-12.82s4.88-9.37,5.14-14.68A17.36,17.36,0,0,0,175.52,367a1.5,1.5,0,0,0-2.12,2.12Z"/><path d="M276,373.77c-2.57,9.46-4.07,19.42-3,29.22a51.75,51.75,0,0,0,3.4,14c1.7,4.19,3.86,8.16,5.88,12.2a47.53,47.53,0,0,1,4.63,12.34,23.12,23.12,0,0,1-1.8,13.59,123.75,123.75,0,0,1-6.32,12,117.28,117.28,0,0,1-6.63,10.54c-5.21,7.27-11.88,13.81-20.56,16.58-1.83.58-1,3.48.8,2.89,16.44-5.24,25.56-21.72,33.12-36,2.33-4.43,4.41-9.06,4.73-14.12a30,30,0,0,0-2.44-12.85c-3.49-8.76-9-16.55-11-25.89-2.41-11.16-.86-22.82,2.09-33.71a1.5,1.5,0,0,0-2.89-.8Z"/><path d="M39.41,428.11c1.38,5.06-2.2,9.82-4.14,14.22a57.46,57.46,0,0,0-4,14.37c-1.45,9.34-1.75,19.65,3.36,28a21.58,21.58,0,0,0,10.08,8.85c1.19.5,1.7-1.43.53-1.92-8.27-3.46-12.19-12.55-12.79-21a61.29,61.29,0,0,1,1-14.75,52.83,52.83,0,0,1,4.28-14c2.15-4.47,5.08-9.2,3.68-14.34a1,1,0,0,0-1.93.53Z"/><path d="M102.87,376.65c4.48,7,3.22,15.89-.37,23-3.92,7.72-10.69,13.51-17,19.23S73.2,430.7,68.57,438a56.62,56.62,0,0,0-8.79,23.42,43,43,0,0,0,5.3,27.29,1,1,0,0,0,1.72-1c-9.16-15.37-5.67-34.46,3.6-48.87,4.73-7.35,10.85-13.41,17.3-19.24,6.23-5.63,12.8-11.46,16.62-19.09s5.11-17.28.28-24.81c-.7-1.08-2.43-.08-1.73,1Z"/><path d="M105,458.44c-.76,7,.09,15.24,4.16,21.15a12.53,12.53,0,0,0,7.15,5.28,9.3,9.3,0,0,0,8.23-1.66c1-.8-.42-2.21-1.41-1.41a7.55,7.55,0,0,1-7.45.77,11.68,11.68,0,0,1-5.77-5.6c-3-5.53-3.58-12.39-2.91-18.53.14-1.28-1.86-1.27-2,0Z"/><path d="M305.52,353.16a76.81,76.81,0,0,0-4.78,46.24,74.21,74.21,0,0,0,8.32,22.06c4.05,7,9.46,13.56,11.75,21.47,2,6.92,1,16-5.5,20.2-1.08.69-.08,2.42,1,1.72,5.65-3.63,7.79-10.5,7.37-17-.5-7.84-4.81-14.65-8.94-21.09-4.46-6.93-8.26-14-10.59-22a75.86,75.86,0,0,1-3-24.11,73.11,73.11,0,0,1,6.05-26.57c.52-1.17-1.21-2.19-1.72-1Z"/><path d="M347.52,412.64c-1.31,7.74,2.23,14.92,4.18,22.21,1,3.69,1.59,7.58.61,11.33-1.1,4.23-4,7.7-6.69,11-.81,1,.6,2.41,1.42,1.42,2.69-3.26,5.44-6.62,6.83-10.67a21.31,21.31,0,0,0,.3-11.37c-1.62-7.68-6.08-15.31-4.72-23.38.21-1.26-1.72-1.8-1.93-.53Z"/><path d="M389.38,286.43c-1.5,19.77-3,40.15,2.3,59.53a97.23,97.23,0,0,0,11.77,26c2.54,4,5.29,7.95,8.16,11.77s5.81,7.29,8.38,11.18,4.84,8.49,5,13.38c.12,4.33-1.26,8.94-4.84,11.65-1,.77,0,2.51,1,1.73,6.45-4.89,7-14,4.18-21A51.12,51.12,0,0,0,418,388.7c-2.93-3.81-5.89-7.6-8.64-11.54-5.61-8-10.59-16.58-13.87-25.83a102.3,102.3,0,0,1-5.33-30.13c-.46-11.61.38-23.21,1.26-34.77.1-1.29-1.9-1.28-2,0Z"/><path d="M189.44,15.34a18.14,18.14,0,0,1,1.89-13.85,1,1,0,0,0-1.73-1,20.19,20.19,0,0,0-2.09,15.4,1,1,0,0,0,1.93-.54Z"/><path d="M188.42,15.27c-.52-2.8-2.72-5.11-5-6.66A15,15,0,0,0,175.66,6c-1.29-.06-1.29,1.94,0,2a13,13,0,0,1,6.6,2.19c1.93,1.28,3.8,3.22,4.23,5.57a1,1,0,0,0,1.93-.53Z"/></g></g></svg>